<svg xmlns="http://www.w3.org/2000/svg" width="250" height="147.326" viewBox="0 0 250 147.326">
  <g id="Group_1557" data-name="Group 1557" transform="translate(-19.542 -19.542)">
    <g id="Group_1553" data-name="Group 1553" transform="translate(19.542 102.787)">
      <path id="Path_1226" data-name="Path 1226" d="M19.542,87.517H39.948V93.7h-13.7v6.186H38.916v6.186H26.243v11.857h-6.7Z" transform="translate(-19.542 -87.499)" fill="#fff"/>
      <path id="Path_1227" data-name="Path 1227" d="M52.113,113.655h-.086a6.068,6.068,0,0,1-2.856,2.406,9.986,9.986,0,0,1-6.573.322,7.129,7.129,0,0,1-2.384-1.225,5.885,5.885,0,0,1-1.632-2.019,6.16,6.16,0,0,1-.6-2.793,6.393,6.393,0,0,1,.665-3.05,5.944,5.944,0,0,1,1.8-2.062,8.983,8.983,0,0,1,2.6-1.268,19.041,19.041,0,0,1,3.029-.665,29.084,29.084,0,0,1,3.136-.258q1.567-.042,2.9-.043a3.353,3.353,0,0,0-1.224-2.728,4.416,4.416,0,0,0-2.9-1.009,6.311,6.311,0,0,0-2.9.665,7.923,7.923,0,0,0-2.341,1.826l-3.437-3.523a11.815,11.815,0,0,1,4.21-2.512,15.032,15.032,0,0,1,4.982-.838,13.024,13.024,0,0,1,4.662.709,6.781,6.781,0,0,1,2.921,2.082,8.025,8.025,0,0,1,1.524,3.372,22.115,22.115,0,0,1,.43,4.619v10.61H52.113Zm-1.589-6.53q-.731,0-1.825.064a9.3,9.3,0,0,0-2.106.365,4.7,4.7,0,0,0-1.719.9,2.083,2.083,0,0,0-.708,1.676,1.843,1.843,0,0,0,.987,1.719,4.132,4.132,0,0,0,2.062.557,6.483,6.483,0,0,0,1.826-.257,5.412,5.412,0,0,0,1.568-.73,3.521,3.521,0,0,0,1.1-1.2,3.466,3.466,0,0,0,.408-1.719v-1.374Z" transform="translate(-15.395 -85.842)" fill="#fff"/>
      <path id="Path_1228" data-name="Path 1228" d="M69.7,101.541a4.559,4.559,0,0,0-3.737-1.761,3.505,3.505,0,0,0-1.589.387A1.366,1.366,0,0,0,63.6,101.5a1.2,1.2,0,0,0,.794,1.138,10.509,10.509,0,0,0,2.019.644l2.621.6a9.883,9.883,0,0,1,2.62,1.009,5.865,5.865,0,0,1,2.02,1.869,5.578,5.578,0,0,1,.794,3.157,5.847,5.847,0,0,1-.881,3.329,6.749,6.749,0,0,1-2.255,2.106,9.716,9.716,0,0,1-3.093,1.117,18.425,18.425,0,0,1-3.394.322,16.42,16.42,0,0,1-4.424-.623,8.273,8.273,0,0,1-3.78-2.212l3.909-4.339a6.475,6.475,0,0,0,2,1.7,5.384,5.384,0,0,0,2.556.581,5.976,5.976,0,0,0,2.019-.322,1.19,1.19,0,0,0,.9-1.182,1.309,1.309,0,0,0-.795-1.224,8.724,8.724,0,0,0-2.019-.687q-1.226-.279-2.62-.6a10.772,10.772,0,0,1-2.621-.966,5.471,5.471,0,0,1-2.019-1.825,5.569,5.569,0,0,1-.795-3.158,6.356,6.356,0,0,1,.752-3.179,6.608,6.608,0,0,1,1.976-2.191,8.582,8.582,0,0,1,2.814-1.267,12.9,12.9,0,0,1,3.222-.408,15.128,15.128,0,0,1,4.167.6,7.74,7.74,0,0,1,3.566,2.147Z" transform="translate(-11.199 -85.842)" fill="#fff"/>
      <path id="Path_1229" data-name="Path 1229" d="M80.335,87.5v12.39h.086a3.9,3.9,0,0,1,.73-1.2A5.711,5.711,0,0,1,82.4,97.616a6.814,6.814,0,0,1,1.719-.774,7.381,7.381,0,0,1,2.149-.3,8.879,8.879,0,0,1,3.952.752,5.717,5.717,0,0,1,2.342,2.084,8.446,8.446,0,0,1,1.138,3.136,23.9,23.9,0,0,1,.3,3.909v11.513H87.552V107.711q0-.9-.065-1.869a5.9,5.9,0,0,0-.386-1.782,2.773,2.773,0,0,0-2.9-1.847,3.984,3.984,0,0,0-2.019.451,3.076,3.076,0,0,0-1.181,1.2,4.923,4.923,0,0,0-.538,1.7,14.646,14.646,0,0,0-.129,1.976v10.4H73.891V87.5Z" transform="translate(-7.319 -87.502)" fill="#fff"/>
      <path id="Path_1230" data-name="Path 1230" d="M96.626,102.212H92.374V97.057h4.252V95.922a16.721,16.721,0,0,1,.3-3.244,6.566,6.566,0,0,1,1.16-2.685,5.686,5.686,0,0,1,2.469-1.826,11.255,11.255,0,0,1,4.232-.665q.987,0,1.933.086a13.292,13.292,0,0,1,1.847.3l-.3,5.456a7.908,7.908,0,0,0-1.031-.322,4.914,4.914,0,0,0-1.074-.107,3.479,3.479,0,0,0-2.32.665,3.589,3.589,0,0,0-.773,2.728v.75h4.767v5.154H103.07v15.723H96.626Z" transform="translate(-3.162 -87.502)" fill="#fff"/>
      <path id="Path_1231" data-name="Path 1231" d="M106.366,105.836a10.965,10.965,0,0,1,.9-4.511,10.393,10.393,0,0,1,2.471-3.458,10.915,10.915,0,0,1,3.694-2.212,13.674,13.674,0,0,1,9.064,0,10.927,10.927,0,0,1,3.694,2.212,10.407,10.407,0,0,1,2.469,3.458,11.721,11.721,0,0,1,0,9.021,10.383,10.383,0,0,1-2.469,3.458,10.907,10.907,0,0,1-3.694,2.212,13.654,13.654,0,0,1-9.064,0,10.9,10.9,0,0,1-3.694-2.212,10.369,10.369,0,0,1-2.471-3.458A10.955,10.955,0,0,1,106.366,105.836Zm6.443,0a5.4,5.4,0,0,0,1.354,3.823,5.679,5.679,0,0,0,7.6,0,6.077,6.077,0,0,0,0-7.647,5.679,5.679,0,0,0-7.6,0A5.407,5.407,0,0,0,112.809,105.836Z" transform="translate(-0.015 -85.842)" fill="#fff"/>
      <path id="Path_1232" data-name="Path 1232" d="M128.389,95.4h6.444v3.35h.086a7.924,7.924,0,0,1,2.449-2.9,6.192,6.192,0,0,1,3.566-.966c.372,0,.744.015,1.117.043a5.511,5.511,0,0,1,1.03.172v5.886a9.636,9.636,0,0,0-1.352-.322,8.841,8.841,0,0,0-1.4-.108,6.839,6.839,0,0,0-2.921.516,3.877,3.877,0,0,0-1.654,1.439,5.488,5.488,0,0,0-.752,2.212,21.439,21.439,0,0,0-.171,2.834v8.721h-6.444Z" transform="translate(4.939 -85.842)" fill="#fff"/>
      <path id="Path_1233" data-name="Path 1233" d="M142.031,95.3h6.874l4.253,13.1h.086l3.566-13.1h7.044l3.867,13.1h.086l3.909-13.1h6.53l-7.433,20.877h-6.357L160.117,102.3h-.086l-3.866,13.876h-6.487Z" transform="translate(8.007 -85.747)" fill="#fff"/>
      <path id="Path_1234" data-name="Path 1234" d="M186.57,113.213h-.086a6.033,6.033,0,0,1-2.856,2.349,10.057,10.057,0,0,1-3.759.713,9.949,9.949,0,0,1-2.814-.4,7.13,7.13,0,0,1-2.384-1.2,5.792,5.792,0,0,1-1.633-1.971,5.891,5.891,0,0,1-.6-2.727A6.119,6.119,0,0,1,173.1,107a5.866,5.866,0,0,1,1.8-2.014,9.026,9.026,0,0,1,2.6-1.237,19.3,19.3,0,0,1,3.029-.65,29.689,29.689,0,0,1,3.136-.252q1.567-.04,2.9-.042a3.243,3.243,0,0,0-1.224-2.664,4.494,4.494,0,0,0-2.9-.985,6.43,6.43,0,0,0-2.9.65,7.906,7.906,0,0,0-2.341,1.782l-3.437-3.44a11.913,11.913,0,0,1,4.21-2.455,15.376,15.376,0,0,1,4.983-.817,13.315,13.315,0,0,1,4.662.692,6.765,6.765,0,0,1,2.92,2.035,7.76,7.76,0,0,1,1.525,3.293,21.1,21.1,0,0,1,.43,4.509v10.865H186.57Zm-1.59-6.376q-.729,0-1.825.062a9.507,9.507,0,0,0-2.106.356,4.74,4.74,0,0,0-1.717.881,2.008,2.008,0,0,0-.709,1.636,1.794,1.794,0,0,0,.989,1.678,4.2,4.2,0,0,0,2.062.545,6.622,6.622,0,0,0,1.826-.252,5.462,5.462,0,0,0,1.568-.713,3.49,3.49,0,0,0,1.1-1.175,3.32,3.32,0,0,0,.408-1.678v-1.341Z" transform="translate(14.845 -85.842)" fill="#fff"/>
      <path id="Path_1235" data-name="Path 1235" d="M192.111,95.4h6.443v3.35h.086a7.915,7.915,0,0,1,2.45-2.9,6.185,6.185,0,0,1,3.564-.966q.559,0,1.117.043a5.524,5.524,0,0,1,1.031.172v5.886a9.693,9.693,0,0,0-1.354-.322,8.817,8.817,0,0,0-1.4-.108,6.833,6.833,0,0,0-2.92.516,3.874,3.874,0,0,0-1.655,1.439,5.488,5.488,0,0,0-.752,2.212,21.647,21.647,0,0,0-.171,2.834v8.721h-6.443Z" transform="translate(19.27 -85.842)" fill="#fff"/>
      <path id="Path_1236" data-name="Path 1236" d="M227.8,117.935h-5.929v-3.214h-.086a6.993,6.993,0,0,1-1.009,1.121,7.6,7.6,0,0,1-1.46,1.036,9.035,9.035,0,0,1-1.847.761,7.378,7.378,0,0,1-2.084.3,10.909,10.909,0,0,1-4.21-.783,9.383,9.383,0,0,1-3.244-2.2,9.8,9.8,0,0,1-2.084-3.362,12.038,12.038,0,0,1-.73-4.27,12.745,12.745,0,0,1,.666-4.123,11.258,11.258,0,0,1,1.89-3.489,9.187,9.187,0,0,1,2.985-2.431,8.584,8.584,0,0,1,4-.91,11.26,11.26,0,0,1,3.759.614,6.017,6.017,0,0,1,2.855,2.093h.087V87.5H227.8Zm-5.929-10.783a5.272,5.272,0,0,0-1.352-3.764,5.744,5.744,0,0,0-7.6,0,5.9,5.9,0,0,0,0,7.527,5.744,5.744,0,0,0,7.6,0A5.267,5.267,0,0,0,221.875,107.152Z" transform="translate(22.196 -87.502)" fill="#fff"/>
    </g>
    <g id="Group_1555" data-name="Group 1555" transform="translate(114.857 19.542)">
      <rect id="Rectangle_493" data-name="Rectangle 493" width="59.46" height="71.352" fill="#151b29"/>
      <g id="Group_1554" data-name="Group 1554" transform="translate(11.945 11.892)">
        <path id="Path_1237" data-name="Path 1237" d="M140.494,52.928,116.816,29.251h23.678Z" transform="translate(-104.924 -29.251)" fill="#486cd9"/>
        <rect id="Rectangle_494" data-name="Rectangle 494" width="11.892" height="47.568" fill="#fff"/>
        <path id="Path_1238" data-name="Path 1238" d="M130.786,67.535,107.108,43.857h23.678Z" transform="translate(-107.108 -25.966)" fill="#486cd9"/>
      </g>
    </g>
    <g id="Group_1556" data-name="Group 1556" transform="translate(44.595 147.737)">
      <path id="Path_1239" data-name="Path 1239" d="M44.644,126.1H39.995v-1.153H50.559V126.1H45.911v12.446H44.644Z" transform="translate(-39.995 -124.03)" fill="#fff"/>
      <path id="Path_1240" data-name="Path 1240" d="M48.638,131.349c0-.167-.006-.369-.018-.605s-.023-.478-.031-.72-.015-.472-.028-.682-.02-.375-.02-.49h1.154q.017.5.028.96a2.988,2.988,0,0,0,.048.6,3.943,3.943,0,0,1,1.133-1.286,2.812,2.812,0,0,1,1.69-.5,1.881,1.881,0,0,1,.336.029c.109.018.222.04.337.066l-.135,1.134a1.389,1.389,0,0,0-.441-.077,3.205,3.205,0,0,0-1.3.24,2.446,2.446,0,0,0-.9.663,2.782,2.782,0,0,0-.528.989,4.172,4.172,0,0,0-.173,1.22v4.841H48.638Z" transform="translate(-38.073 -123.204)" fill="#fff"/>
      <path id="Path_1241" data-name="Path 1241" d="M61.487,136.054a3.877,3.877,0,0,1-1.661,1.46,5.274,5.274,0,0,1-2.179.442,4.711,4.711,0,0,1-1.845-.347,4.156,4.156,0,0,1-1.421-.969,4.253,4.253,0,0,1-.914-1.48,5.417,5.417,0,0,1-.316-1.891,5.1,5.1,0,0,1,.326-1.845,4.409,4.409,0,0,1,.922-1.469,4.3,4.3,0,0,1,1.4-.98,4.39,4.39,0,0,1,1.786-.355,4.3,4.3,0,0,1,1.8.355,3.943,3.943,0,0,1,1.306.941,4,4,0,0,1,.8,1.335,4.447,4.447,0,0,1,.269,1.518v.806H54.3a3.959,3.959,0,0,0,.143.932,3.268,3.268,0,0,0,.529,1.1,3.33,3.33,0,0,0,1.028.922,3.2,3.2,0,0,0,1.661.383,3.712,3.712,0,0,0,1.71-.423,3.083,3.083,0,0,0,1.268-1.153Zm-.883-3.514a2.634,2.634,0,0,0-.24-1.115,2.975,2.975,0,0,0-.653-.911,3.077,3.077,0,0,0-.98-.625,3.14,3.14,0,0,0-1.2-.23,2.931,2.931,0,0,0-1.564.383,3.444,3.444,0,0,0-.99.883,3.539,3.539,0,0,0-.519.97,2.556,2.556,0,0,0-.153.644Z" transform="translate(-37.036 -123.204)" fill="#fff"/>
      <path id="Path_1242" data-name="Path 1242" d="M62.3,131.349c0-.167-.007-.369-.02-.605s-.023-.478-.029-.72-.016-.472-.029-.682-.018-.375-.018-.49h1.153c.012.333.021.653.028.96a2.987,2.987,0,0,0,.048.6h.058a3.118,3.118,0,0,1,1.154-1.258,3.358,3.358,0,0,1,1.881-.528,3.784,3.784,0,0,1,1.69.327,2.722,2.722,0,0,1,1.028.854,3.212,3.212,0,0,1,.518,1.22,6.9,6.9,0,0,1,.145,1.421v5.283H68.75V132.5a5.664,5.664,0,0,0-.1-1.047,2.818,2.818,0,0,0-.336-.913,1.76,1.76,0,0,0-.672-.643,2.3,2.3,0,0,0-1.124-.24,3.279,3.279,0,0,0-1.2.22,2.569,2.569,0,0,0-.979.672,3.215,3.215,0,0,0-.654,1.133,4.822,4.822,0,0,0-.24,1.6v4.438H62.3Z" transform="translate(-35.001 -123.204)" fill="#fff"/>
      <path id="Path_1243" data-name="Path 1243" d="M78.849,137.165h-.038a2.991,2.991,0,0,1-.673.8,4.027,4.027,0,0,1-.875.557,4.4,4.4,0,0,1-.989.327,5.141,5.141,0,0,1-1.018.105,5,5,0,0,1-1.883-.347,4.28,4.28,0,0,1-1.478-.969,4.479,4.479,0,0,1-.962-1.48,5.25,5.25,0,0,1,0-3.746,4.486,4.486,0,0,1,.962-1.478,4.264,4.264,0,0,1,1.478-.97,5.027,5.027,0,0,1,1.883-.345,5.141,5.141,0,0,1,1.018.105,4.4,4.4,0,0,1,.989.327,4.067,4.067,0,0,1,.875.556,3,3,0,0,1,.673.8h.038v-7.2H80V138.72H78.849Zm.115-2.882a3.5,3.5,0,0,0-.288-1.411,3.6,3.6,0,0,0-.788-1.153,3.781,3.781,0,0,0-1.172-.778,3.656,3.656,0,0,0-1.459-.288,3.57,3.57,0,0,0-1.46.288,3.39,3.39,0,0,0-1.115.778,3.294,3.294,0,0,0-.7,1.153,4.291,4.291,0,0,0,0,2.823,3.305,3.305,0,0,0,.7,1.153,3.41,3.41,0,0,0,1.115.778,3.571,3.571,0,0,0,1.46.288,3.657,3.657,0,0,0,1.459-.288,3.8,3.8,0,0,0,1.172-.778,3.617,3.617,0,0,0,.788-1.153A3.5,3.5,0,0,0,78.964,134.282Z" transform="translate(-33.114 -124.199)" fill="#fff"/>
      <path id="Path_1244" data-name="Path 1244" d="M80.781,135.458a2.475,2.475,0,0,0,1.075,1.085,3.167,3.167,0,0,0,1.5.375,2.4,2.4,0,0,0,.73-.115,2.264,2.264,0,0,0,.653-.326,1.789,1.789,0,0,0,.47-.51,1.273,1.273,0,0,0,.183-.682,1.094,1.094,0,0,0-.394-.921,2.924,2.924,0,0,0-.97-.481,11.87,11.87,0,0,0-1.267-.3,5.434,5.434,0,0,1-1.268-.383,2.744,2.744,0,0,1-.97-.72,1.949,1.949,0,0,1-.393-1.306,2.262,2.262,0,0,1,.269-1.134,2.454,2.454,0,0,1,.7-.8,3.038,3.038,0,0,1,.97-.47,3.984,3.984,0,0,1,1.094-.153,4.13,4.13,0,0,1,1.891.4,2.794,2.794,0,0,1,1.24,1.268l-1.038.615a2.416,2.416,0,0,0-.816-.931,2.309,2.309,0,0,0-1.278-.317,2.346,2.346,0,0,0-.643.1,2.23,2.23,0,0,0-.605.269,1.531,1.531,0,0,0-.451.441,1.067,1.067,0,0,0-.184.615,1.027,1.027,0,0,0,.394.884,3.042,3.042,0,0,0,.97.451,11.776,11.776,0,0,0,1.268.278,5.164,5.164,0,0,1,1.268.375,2.6,2.6,0,0,1,.97.75,2.172,2.172,0,0,1,.393,1.393,2.592,2.592,0,0,1-.26,1.2,2.465,2.465,0,0,1-.71.855,3.151,3.151,0,0,1-1.028.519,4.183,4.183,0,0,1-1.21.173,4.924,4.924,0,0,1-2.1-.442,3.186,3.186,0,0,1-1.469-1.363Z" transform="translate(-31.051 -123.204)" fill="#fff"/>
      <path id="Path_1245" data-name="Path 1245" d="M95.187,136.054a3.887,3.887,0,0,1-1.662,1.46,5.274,5.274,0,0,1-2.179.442,4.711,4.711,0,0,1-1.845-.347,4.156,4.156,0,0,1-1.421-.969,4.268,4.268,0,0,1-.913-1.48,5.389,5.389,0,0,1-.317-1.891,5.074,5.074,0,0,1,.327-1.845,4.386,4.386,0,0,1,.921-1.469,4.33,4.33,0,0,1,1.4-.98,4.39,4.39,0,0,1,1.786-.355,4.292,4.292,0,0,1,1.8.355,3.931,3.931,0,0,1,1.306.941,4.019,4.019,0,0,1,.8,1.335,4.475,4.475,0,0,1,.268,1.518v.806H88a3.958,3.958,0,0,0,.143.932,3.291,3.291,0,0,0,.529,1.1,3.331,3.331,0,0,0,1.028.922,3.206,3.206,0,0,0,1.661.383,3.712,3.712,0,0,0,1.71-.423,3.083,3.083,0,0,0,1.268-1.153Zm-.884-3.514a2.651,2.651,0,0,0-.239-1.115,2.979,2.979,0,0,0-.654-.911,3.085,3.085,0,0,0-.979-.625,3.151,3.151,0,0,0-1.2-.23,2.934,2.934,0,0,0-1.564.383,3.444,3.444,0,0,0-.99.883,3.539,3.539,0,0,0-.519.97,2.556,2.556,0,0,0-.153.644Z" transform="translate(-29.457 -123.204)" fill="#fff"/>
      <path id="Path_1246" data-name="Path 1246" d="M100.551,130.315H98.014V136.1a1.242,1.242,0,0,0,.327.921,1.216,1.216,0,0,0,.9.327,2.653,2.653,0,0,0,.663-.086,4.434,4.434,0,0,0,.644-.222l.1,1.037a6.992,6.992,0,0,1-.748.212,3.465,3.465,0,0,1-.751.1,2.766,2.766,0,0,1-1.056-.183,1.818,1.818,0,0,1-1.1-1.21,3.033,3.033,0,0,1-.125-.893v-5.782H94.942v-1.038h1.921v-2.554h1.151v2.554h2.537Z" transform="translate(-27.637 -123.631)" fill="#fff"/>
      <path id="Path_1247" data-name="Path 1247" d="M105.788,130.315h-2.536V136.1a1.247,1.247,0,0,0,.326.921,1.217,1.217,0,0,0,.9.327,2.668,2.668,0,0,0,.663-.086,4.472,4.472,0,0,0,.643-.222l.1,1.037a6.993,6.993,0,0,1-.748.212,3.464,3.464,0,0,1-.75.1,2.777,2.777,0,0,1-1.057-.183,1.885,1.885,0,0,1-.71-.49,1.909,1.909,0,0,1-.393-.72,3.074,3.074,0,0,1-.125-.893v-5.782h-1.921v-1.038H102.1v-2.554h1.153v2.554h2.536Z" transform="translate(-26.459 -123.631)" fill="#fff"/>
      <path id="Path_1248" data-name="Path 1248" d="M106.372,126.1a.864.864,0,1,1,1.728,0,.864.864,0,1,1-1.728,0Zm.289,3.515h1.153v8.874h-1.153Z" transform="translate(-25.066 -123.966)" fill="#fff"/>
      <path id="Path_1249" data-name="Path 1249" d="M110.232,131.349c0-.167-.007-.369-.018-.605s-.023-.478-.031-.72-.016-.472-.028-.682-.02-.375-.02-.49h1.153q.018.5.029.96a2.9,2.9,0,0,0,.048.6h.058a3.114,3.114,0,0,1,1.153-1.258,3.36,3.36,0,0,1,1.881-.528,3.777,3.777,0,0,1,1.69.327,2.7,2.7,0,0,1,1.028.854,3.214,3.214,0,0,1,.519,1.22,6.989,6.989,0,0,1,.143,1.421v5.283h-1.151V132.5a5.771,5.771,0,0,0-.1-1.047,2.818,2.818,0,0,0-.337-.913,1.752,1.752,0,0,0-.672-.643,2.3,2.3,0,0,0-1.124-.24,3.277,3.277,0,0,0-1.2.22,2.574,2.574,0,0,0-.98.672,3.213,3.213,0,0,0-.653,1.133,4.823,4.823,0,0,0-.24,1.6v4.438h-1.153Z" transform="translate(-24.22 -123.204)" fill="#fff"/>
      <path id="Path_1250" data-name="Path 1250" d="M127.915,137.149a6.337,6.337,0,0,1-.479,2.67,4.212,4.212,0,0,1-1.2,1.575,3.968,3.968,0,0,1-1.545.748,6.66,6.66,0,0,1-1.5.192,6.882,6.882,0,0,1-1.316-.125,6.2,6.2,0,0,1-1.219-.365,4.99,4.99,0,0,1-1.049-.586,4.15,4.15,0,0,1-.816-.788l.9-.845a3.66,3.66,0,0,0,1.536,1.268,4.827,4.827,0,0,0,1.96.4,4.2,4.2,0,0,0,1.489-.23,2.951,2.951,0,0,0,1-.605,2.9,2.9,0,0,0,.614-.826,4.316,4.316,0,0,0,.327-.9,4.755,4.755,0,0,0,.125-.855c.012-.27.02-.486.02-.653V136h-.038a3.548,3.548,0,0,1-1.355,1.267,4.171,4.171,0,0,1-2.008.462,4.807,4.807,0,0,1-1.843-.355,4.7,4.7,0,0,1-2.526-2.43,4.339,4.339,0,0,1,0-3.534,4.571,4.571,0,0,1,1.018-1.44,4.93,4.93,0,0,1,1.508-.98,4.68,4.68,0,0,1,1.843-.365,4.171,4.171,0,0,1,2.008.461,3.551,3.551,0,0,1,1.355,1.268h.038v-1.5h1.151Zm-1.113-3.976a3.431,3.431,0,0,0-.278-1.373,3.5,3.5,0,0,0-1.863-1.863,3.532,3.532,0,0,0-2.747,0,3.5,3.5,0,0,0-1.863,1.863,3.529,3.529,0,0,0,0,2.746,3.556,3.556,0,0,0,.75,1.115,3.52,3.52,0,0,0,1.113.748,3.518,3.518,0,0,0,2.747,0,3.492,3.492,0,0,0,1.863-1.863A3.426,3.426,0,0,0,126.8,133.173Z" transform="translate(-22.312 -123.204)" fill="#fff"/>
      <path id="Path_1251" data-name="Path 1251" d="M132.387,124.2h1.151v7.2h.039a3,3,0,0,1,.673-.8,4.088,4.088,0,0,1,.873-.556,4.427,4.427,0,0,1,.99-.327,5.141,5.141,0,0,1,1.018-.105,4.953,4.953,0,0,1,1.873.345,4.35,4.35,0,0,1,2.449,2.449,5.233,5.233,0,0,1,0,3.746A4.34,4.34,0,0,1,139,138.6a4.93,4.93,0,0,1-1.873.347,5.142,5.142,0,0,1-1.018-.105,4.425,4.425,0,0,1-.99-.327,4.047,4.047,0,0,1-.873-.557,2.99,2.99,0,0,1-.673-.8h-.039v1.556h-1.151Zm1.037,10.083a3.5,3.5,0,0,0,.288,1.412,3.6,3.6,0,0,0,.788,1.153,3.775,3.775,0,0,0,1.172.778,3.653,3.653,0,0,0,1.459.288,3.565,3.565,0,0,0,1.459-.288,3.4,3.4,0,0,0,1.116-.778,3.3,3.3,0,0,0,.7-1.153,4.271,4.271,0,0,0,0-2.823,3.294,3.294,0,0,0-.7-1.153,3.383,3.383,0,0,0-1.116-.778,3.564,3.564,0,0,0-1.459-.288,3.652,3.652,0,0,0-1.459.288,3.752,3.752,0,0,0-1.172.778,3.584,3.584,0,0,0-.788,1.153A3.5,3.5,0,0,0,133.424,134.282Z" transform="translate(-19.215 -124.199)" fill="#fff"/>
      <path id="Path_1252" data-name="Path 1252" d="M144.9,140.43a3.3,3.3,0,0,1-.9,1.365,2.267,2.267,0,0,1-1.536.5,3.54,3.54,0,0,1-.577-.048,4.99,4.99,0,0,1-.557-.125l.116-1.075c.167.05.336.1.508.145a2.139,2.139,0,0,0,.529.066,1.1,1.1,0,0,0,.546-.134,1.447,1.447,0,0,0,.414-.347,2.355,2.355,0,0,0,.3-.47,5.642,5.642,0,0,0,.22-.528l.807-2.055-3.611-8.912h1.286l2.939,7.472,2.863-7.472h1.23Z" transform="translate(-17.244 -123.162)" fill="#fff"/>
      <path id="Path_1253" data-name="Path 1253" d="M161.361,137.165h-.038a3.014,3.014,0,0,1-.672.8,4.058,4.058,0,0,1-.875.557,4.4,4.4,0,0,1-.99.327,5.132,5.132,0,0,1-1.018.105,5.012,5.012,0,0,1-1.883-.347,4.291,4.291,0,0,1-1.478-.969,4.474,4.474,0,0,1-.96-1.48,5.249,5.249,0,0,1,0-3.746,4.482,4.482,0,0,1,.96-1.478,4.276,4.276,0,0,1,1.478-.97,5.035,5.035,0,0,1,1.883-.345,5.132,5.132,0,0,1,1.018.105,4.407,4.407,0,0,1,.99.327,4.1,4.1,0,0,1,.875.556,3.018,3.018,0,0,1,.672.8h.038v-7.2h1.151V138.72h-1.151Zm.115-2.882a3.475,3.475,0,0,0-.289-1.411,3.6,3.6,0,0,0-.786-1.153,3.8,3.8,0,0,0-1.172-.778,3.658,3.658,0,0,0-1.46-.288,3.568,3.568,0,0,0-1.459.288,3.391,3.391,0,0,0-1.115.778,3.276,3.276,0,0,0-.7,1.153,4.271,4.271,0,0,0,0,2.823,3.287,3.287,0,0,0,.7,1.153,3.41,3.41,0,0,0,1.115.778,3.569,3.569,0,0,0,1.459.288,3.658,3.658,0,0,0,1.46-.288,3.818,3.818,0,0,0,1.172-.778,3.613,3.613,0,0,0,.786-1.153A3.481,3.481,0,0,0,161.476,134.282Z" transform="translate(-14.557 -124.199)" fill="#fff"/>
      <path id="Path_1254" data-name="Path 1254" d="M171.019,136.054a3.887,3.887,0,0,1-1.662,1.46,5.274,5.274,0,0,1-2.179.442,4.711,4.711,0,0,1-1.845-.347,4.156,4.156,0,0,1-1.421-.969,4.268,4.268,0,0,1-.913-1.48,5.389,5.389,0,0,1-.317-1.891,5.074,5.074,0,0,1,.327-1.845,4.386,4.386,0,0,1,.921-1.469,4.33,4.33,0,0,1,1.4-.98,4.39,4.39,0,0,1,1.786-.355,4.292,4.292,0,0,1,1.8.355,3.931,3.931,0,0,1,1.306.941,4.02,4.02,0,0,1,.8,1.335,4.476,4.476,0,0,1,.268,1.518v.806h-7.452a3.907,3.907,0,0,0,.145.932,3.264,3.264,0,0,0,.528,1.1,3.33,3.33,0,0,0,1.028.922,3.206,3.206,0,0,0,1.661.383,3.712,3.712,0,0,0,1.71-.423,3.082,3.082,0,0,0,1.268-1.153Zm-.884-3.514a2.652,2.652,0,0,0-.239-1.115,2.979,2.979,0,0,0-.654-.911,3.085,3.085,0,0,0-.979-.625,3.151,3.151,0,0,0-1.2-.23,2.934,2.934,0,0,0-1.564.383,3.444,3.444,0,0,0-.99.883,3.539,3.539,0,0,0-.519.97,2.555,2.555,0,0,0-.153.644Z" transform="translate(-12.402 -123.204)" fill="#fff"/>
      <path id="Path_1255" data-name="Path 1255" d="M172.012,135.458a2.479,2.479,0,0,0,1.074,1.085,3.167,3.167,0,0,0,1.5.375,2.41,2.41,0,0,0,.731-.115,2.258,2.258,0,0,0,.652-.326,1.811,1.811,0,0,0,.472-.51,1.282,1.282,0,0,0,.181-.682,1.094,1.094,0,0,0-.393-.921,2.948,2.948,0,0,0-.97-.481,11.943,11.943,0,0,0-1.267-.3,5.415,5.415,0,0,1-1.268-.383,2.723,2.723,0,0,1-.97-.72,1.949,1.949,0,0,1-.394-1.306,2.275,2.275,0,0,1,.269-1.134,2.482,2.482,0,0,1,.7-.8,3.05,3.05,0,0,1,.97-.47,3.986,3.986,0,0,1,1.1-.153,4.134,4.134,0,0,1,1.891.4,2.806,2.806,0,0,1,1.24,1.268l-1.038.615a2.436,2.436,0,0,0-.816-.931,2.312,2.312,0,0,0-1.278-.317,2.354,2.354,0,0,0-.644.1,2.264,2.264,0,0,0-.605.269,1.56,1.56,0,0,0-.451.441,1.075,1.075,0,0,0-.183.615,1.027,1.027,0,0,0,.393.884,3.067,3.067,0,0,0,.97.451,11.775,11.775,0,0,0,1.268.278,5.149,5.149,0,0,1,1.268.375,2.589,2.589,0,0,1,.97.75,2.173,2.173,0,0,1,.394,1.393,2.607,2.607,0,0,1-.26,1.2,2.477,2.477,0,0,1-.71.855,3.163,3.163,0,0,1-1.028.519,4.2,4.2,0,0,1-1.211.173,4.918,4.918,0,0,1-2.1-.442,3.189,3.189,0,0,1-1.47-1.363Z" transform="translate(-10.533 -123.204)" fill="#fff"/>
      <path id="Path_1256" data-name="Path 1256" d="M178.41,126.1a.87.87,0,1,1,.866.865.855.855,0,0,1-.866-.865Zm.289,3.515h1.153v8.874H178.7Z" transform="translate(-8.864 -123.966)" fill="#fff"/>
      <path id="Path_1257" data-name="Path 1257" d="M191.235,137.149a6.316,6.316,0,0,1-.48,2.67,4.223,4.223,0,0,1-1.2,1.575,3.981,3.981,0,0,1-1.546.748,6.652,6.652,0,0,1-1.5.192,6.893,6.893,0,0,1-1.316-.125,6.2,6.2,0,0,1-1.219-.365,4.99,4.99,0,0,1-1.049-.586,4.187,4.187,0,0,1-.816-.788l.9-.845a3.661,3.661,0,0,0,1.536,1.268,4.826,4.826,0,0,0,1.959.4,4.2,4.2,0,0,0,1.489-.23,2.939,2.939,0,0,0,1-.605,2.9,2.9,0,0,0,.614-.826,4.246,4.246,0,0,0,.327-.9,4.765,4.765,0,0,0,.126-.855c.011-.27.018-.486.018-.653V136h-.038a3.548,3.548,0,0,1-1.355,1.267,4.163,4.163,0,0,1-2.006.462,4.818,4.818,0,0,1-1.845-.355,4.7,4.7,0,0,1-2.526-2.43,4.352,4.352,0,0,1,0-3.534,4.59,4.59,0,0,1,1.018-1.44,4.93,4.93,0,0,1,1.508-.98,4.69,4.69,0,0,1,1.845-.365,4.162,4.162,0,0,1,2.006.461,3.551,3.551,0,0,1,1.355,1.268h.038v-1.5h1.153Zm-1.115-3.976a3.43,3.43,0,0,0-.278-1.373,3.491,3.491,0,0,0-1.863-1.863,3.532,3.532,0,0,0-2.747,0,3.579,3.579,0,0,0-1.113.75,3.541,3.541,0,0,0-.748,1.113,3.516,3.516,0,0,0,0,2.746,3.484,3.484,0,0,0,1.862,1.863,3.518,3.518,0,0,0,2.747,0,3.48,3.48,0,0,0,1.863-1.863A3.426,3.426,0,0,0,190.12,133.173Z" transform="translate(-8.071 -123.204)" fill="#fff"/>
      <path id="Path_1258" data-name="Path 1258" d="M191.851,131.349c0-.167-.007-.369-.018-.605s-.023-.478-.031-.72-.015-.472-.028-.682-.02-.375-.02-.49h1.154q.017.5.028.96a2.986,2.986,0,0,0,.048.6h.058a3.115,3.115,0,0,1,1.153-1.258,3.365,3.365,0,0,1,1.883-.528,3.775,3.775,0,0,1,1.689.327,2.7,2.7,0,0,1,1.028.854,3.214,3.214,0,0,1,.519,1.22,6.987,6.987,0,0,1,.143,1.421v5.283H198.3V132.5a5.772,5.772,0,0,0-.1-1.047,2.82,2.82,0,0,0-.337-.913,1.752,1.752,0,0,0-.672-.643,2.3,2.3,0,0,0-1.123-.24,3.279,3.279,0,0,0-1.2.22,2.573,2.573,0,0,0-.98.672,3.233,3.233,0,0,0-.653,1.133,4.824,4.824,0,0,0-.24,1.6v4.438h-1.153Z" transform="translate(-5.863 -123.204)" fill="#fff"/>
      <path id="Path_1259" data-name="Path 1259" d="M200.583,135.564a.92.92,0,1,1,.27.653A.886.886,0,0,1,200.583,135.564Z" transform="translate(-3.878 -121.85)" fill="#fff"/>
    </g>
  </g>
</svg>
