<svg xmlns="http://www.w3.org/2000/svg" width="15.773" height="15.352" viewBox="0 0 15.773 15.352">
  <g id="Group" transform="translate(0.604 0.5)">
    <path id="Stroke_1" data-name="Stroke 1" d="M11.027,0l1.6.782A22.887,22.887,0,0,0,13.881,5.24a5.827,5.827,0,0,1,.47,4.771c-.822,1.917-1.135,2.425-1.056,4.341H1.5A8.35,8.35,0,0,0,.561,10.6C-.4,9.117.019,6.787.757,5.4A15.878,15.878,0,0,0,2.125.743L3.65,0S5.49,2.323,7.335,2.386C9.135,2.447,11.027,0,11.027,0Z" transform="translate(0)" fill="none" stroke="#fff" stroke-linejoin="round" stroke-width="1"/>
    <path id="Stroke_3" data-name="Stroke 3" d="M7.477,0c.548,2.422-.163,7.811-3.743,7.772C.432,7.737-.419,3.273.176.047" transform="translate(3.614 0.25)" fill="none" stroke="#fff" stroke-linejoin="round" stroke-width="1"/>
    <path id="Stroke_5" data-name="Stroke 5" d="M11.853.417H0" transform="translate(1.451 12.404)" fill="none" stroke="#fff" stroke-linejoin="round" stroke-width="0.75"/>
  </g>
</svg>
