<svg xmlns="http://www.w3.org/2000/svg" width="500" height="294.651" viewBox="0 0 500 294.651">
  <g id="Group_1557" data-name="Group 1557" transform="translate(-19.542 -19.542)">
    <g id="Group_1553" data-name="Group 1553" transform="translate(19.542 186.031)">
      <path id="Path_1226" data-name="Path 1226" d="M19.542,87.517H60.353V99.889H32.945V112.26H58.291v12.372H32.945v23.714h-13.4Z" transform="translate(-19.542 -87.48)" fill="#fff"/>
      <path id="Path_1227" data-name="Path 1227" d="M66.245,132.428h-.171a12.135,12.135,0,0,1-5.713,4.811,19.972,19.972,0,0,1-13.146.644,14.258,14.258,0,0,1-4.767-2.45,11.77,11.77,0,0,1-3.263-4.037,12.319,12.319,0,0,1-1.2-5.586,12.787,12.787,0,0,1,1.33-6.1,11.889,11.889,0,0,1,3.609-4.123,17.966,17.966,0,0,1,5.2-2.536,38.08,38.08,0,0,1,6.058-1.33,58.172,58.172,0,0,1,6.272-.517q3.135-.085,5.8-.086a6.706,6.706,0,0,0-2.447-5.456,8.832,8.832,0,0,0-5.8-2.019,12.623,12.623,0,0,0-5.8,1.33,15.847,15.847,0,0,0-4.682,3.653l-6.874-7.046a23.629,23.629,0,0,1,8.42-5.025,30.064,30.064,0,0,1,9.963-1.676A26.049,26.049,0,0,1,68.351,96.3a13.563,13.563,0,0,1,5.843,4.165,16.05,16.05,0,0,1,3.048,6.744,44.232,44.232,0,0,1,.86,9.238v21.22H66.245Zm-3.177-13.06q-1.463,0-3.65.127a18.589,18.589,0,0,0-4.211.73,9.41,9.41,0,0,0-3.437,1.806,4.167,4.167,0,0,0-1.416,3.351,3.686,3.686,0,0,0,1.975,3.437,8.264,8.264,0,0,0,4.123,1.115,12.965,12.965,0,0,0,3.653-.514,10.824,10.824,0,0,0,3.136-1.46,7.041,7.041,0,0,0,2.19-2.406,6.932,6.932,0,0,0,.816-3.437v-2.749Z" transform="translate(7.191 -76.802)" fill="#fff"/>
      <path id="Path_1228" data-name="Path 1228" d="M82.754,108.2a9.118,9.118,0,0,0-7.474-3.523,7.01,7.01,0,0,0-3.177.774,2.732,2.732,0,0,0-1.546,2.663,2.391,2.391,0,0,0,1.587,2.276,21.02,21.02,0,0,0,4.037,1.289q2.451.562,5.243,1.2a19.765,19.765,0,0,1,5.24,2.019,11.73,11.73,0,0,1,4.04,3.738,11.155,11.155,0,0,1,1.588,6.313,11.694,11.694,0,0,1-1.761,6.659,13.5,13.5,0,0,1-4.51,4.211,19.432,19.432,0,0,1-6.186,2.234,36.85,36.85,0,0,1-6.788.644,32.839,32.839,0,0,1-8.849-1.247,16.546,16.546,0,0,1-7.56-4.424l7.817-8.677a12.949,12.949,0,0,0,4,3.393,10.768,10.768,0,0,0,5.113,1.161,11.951,11.951,0,0,0,4.037-.644,2.38,2.38,0,0,0,1.806-2.364,2.619,2.619,0,0,0-1.59-2.447,17.448,17.448,0,0,0-4.037-1.374q-2.451-.559-5.24-1.205a21.544,21.544,0,0,1-5.243-1.933,10.941,10.941,0,0,1-4.037-3.65,11.139,11.139,0,0,1-1.59-6.316,12.712,12.712,0,0,1,1.5-6.357,13.217,13.217,0,0,1,3.952-4.383A17.164,17.164,0,0,1,68.751,95.7a25.808,25.808,0,0,1,6.443-.816,30.255,30.255,0,0,1,8.334,1.2,15.479,15.479,0,0,1,7.131,4.295Z" transform="translate(34.239 -76.802)" fill="#fff"/>
      <path id="Path_1229" data-name="Path 1229" d="M86.779,87.5v24.78h.171a7.8,7.8,0,0,1,1.46-2.406A11.423,11.423,0,0,1,90.9,107.73a13.629,13.629,0,0,1,3.437-1.548,14.763,14.763,0,0,1,4.3-.6,17.758,17.758,0,0,1,7.9,1.5,11.434,11.434,0,0,1,4.684,4.167,16.892,16.892,0,0,1,2.276,6.272,47.792,47.792,0,0,1,.6,7.817v23.026H101.214V127.919q0-1.8-.13-3.738a11.8,11.8,0,0,0-.772-3.564,5.546,5.546,0,0,0-5.8-3.694,7.967,7.967,0,0,0-4.037.9,6.152,6.152,0,0,0-2.362,2.406,9.846,9.846,0,0,0-1.076,3.4,29.294,29.294,0,0,0-.257,3.952v20.792H73.891V87.5Z" transform="translate(59.254 -87.502)" fill="#fff"/>
      <path id="Path_1230" data-name="Path 1230" d="M100.877,116.922h-8.5V106.613h8.5v-2.271a33.441,33.441,0,0,1,.6-6.487,13.132,13.132,0,0,1,2.32-5.37,11.372,11.372,0,0,1,4.939-3.653A22.51,22.51,0,0,1,117.2,87.5q1.973,0,3.866.171a26.581,26.581,0,0,1,3.694.6l-.6,10.911a15.815,15.815,0,0,0-2.063-.644,9.828,9.828,0,0,0-2.148-.213,6.959,6.959,0,0,0-4.64,1.33q-1.543,1.334-1.546,5.456v1.5H123.3v10.309h-9.535v31.446H100.877Z" transform="translate(86.051 -87.502)" fill="#fff"/>
      <path id="Path_1231" data-name="Path 1231" d="M106.366,116.791a21.93,21.93,0,0,1,1.8-9.023,20.786,20.786,0,0,1,4.941-6.916,21.83,21.83,0,0,1,7.389-4.424,27.349,27.349,0,0,1,18.129,0,21.854,21.854,0,0,1,7.389,4.424,20.814,20.814,0,0,1,4.939,6.916,23.441,23.441,0,0,1,0,18.043,20.765,20.765,0,0,1-4.939,6.916,21.815,21.815,0,0,1-7.389,4.424,27.308,27.308,0,0,1-18.129,0,21.791,21.791,0,0,1-7.389-4.424,20.737,20.737,0,0,1-4.941-6.916A21.911,21.911,0,0,1,106.366,116.791Zm12.886,0a10.807,10.807,0,0,0,2.707,7.646,11.358,11.358,0,0,0,15.206,0,12.155,12.155,0,0,0,0-15.294,11.358,11.358,0,0,0-15.206,0A10.813,10.813,0,0,0,119.252,116.791Z" transform="translate(106.337 -76.802)" fill="#fff"/>
      <path id="Path_1232" data-name="Path 1232" d="M128.389,95.913h12.888v6.7h.172a15.848,15.848,0,0,1,4.9-5.8,12.385,12.385,0,0,1,7.131-1.933c.745,0,1.487.029,2.234.086a11.02,11.02,0,0,1,2.06.343v11.771a19.269,19.269,0,0,0-2.7-.644,17.682,17.682,0,0,0-2.793-.216,13.679,13.679,0,0,0-5.843,1.031,7.754,7.754,0,0,0-3.307,2.879,10.976,10.976,0,0,0-1.5,4.424,42.879,42.879,0,0,0-.343,5.669v17.443H128.389Z" transform="translate(138.266 -76.802)" fill="#fff"/>
      <path id="Path_1233" data-name="Path 1233" d="M142.031,95.3h13.748l8.506,26.2h.171l7.131-26.2h14.089l7.734,26.2h.171L201.4,95.3h13.06l-14.865,41.755H186.88L178.2,109.306h-.172L170.3,137.058H157.325Z" transform="translate(158.044 -76.192)" fill="#fff"/>
      <path id="Path_1234" data-name="Path 1234" d="M200.7,131.543h-.171a12.065,12.065,0,0,1-5.713,4.7,20.113,20.113,0,0,1-7.518,1.426,19.9,19.9,0,0,1-5.627-.8,14.261,14.261,0,0,1-4.767-2.393,11.584,11.584,0,0,1-3.266-3.942,11.782,11.782,0,0,1-1.2-5.453,12.237,12.237,0,0,1,1.333-5.956,11.733,11.733,0,0,1,3.606-4.027,18.053,18.053,0,0,1,5.2-2.474,38.591,38.591,0,0,1,6.058-1.3,59.376,59.376,0,0,1,6.272-.5q3.134-.081,5.8-.083a6.486,6.486,0,0,0-2.447-5.328,8.989,8.989,0,0,0-5.8-1.97,12.861,12.861,0,0,0-5.8,1.3,15.812,15.812,0,0,0-4.682,3.564l-6.874-6.879a23.825,23.825,0,0,1,8.42-4.909,30.751,30.751,0,0,1,9.966-1.634,26.629,26.629,0,0,1,9.324,1.384,13.529,13.529,0,0,1,5.84,4.069,15.521,15.521,0,0,1,3.05,6.585,42.192,42.192,0,0,1,.86,9.018v21.73H200.7Zm-3.18-12.751q-1.459,0-3.65.125a19.017,19.017,0,0,0-4.211.713,9.481,9.481,0,0,0-3.435,1.761,4.017,4.017,0,0,0-1.418,3.273,3.588,3.588,0,0,0,1.977,3.356,8.4,8.4,0,0,0,4.123,1.09,13.243,13.243,0,0,0,3.653-.5,10.924,10.924,0,0,0,3.136-1.426,6.98,6.98,0,0,0,2.19-2.349,6.639,6.639,0,0,0,.816-3.356v-2.683Z" transform="translate(202.128 -76.802)" fill="#fff"/>
      <path id="Path_1235" data-name="Path 1235" d="M192.111,95.913H205v6.7h.171a15.83,15.83,0,0,1,4.9-5.8,12.371,12.371,0,0,1,7.129-1.933q1.117,0,2.234.086a11.048,11.048,0,0,1,2.063.343v11.771a19.384,19.384,0,0,0-2.707-.644,17.635,17.635,0,0,0-2.793-.216,13.667,13.667,0,0,0-5.84,1.031,7.747,7.747,0,0,0-3.31,2.879,10.975,10.975,0,0,0-1.5,4.424,43.293,43.293,0,0,0-.343,5.669v17.443H192.111Z" transform="translate(230.651 -76.802)" fill="#fff"/>
      <path id="Path_1236" data-name="Path 1236" d="M250.485,148.368H238.628v-6.428h-.172a13.984,13.984,0,0,1-2.019,2.242,15.207,15.207,0,0,1-2.92,2.073,18.072,18.072,0,0,1-3.694,1.521,14.757,14.757,0,0,1-4.167.593,21.818,21.818,0,0,1-8.42-1.565,18.766,18.766,0,0,1-6.487-4.4,19.6,19.6,0,0,1-4.167-6.725,24.076,24.076,0,0,1-1.46-8.54,25.491,25.491,0,0,1,1.333-8.246,22.517,22.517,0,0,1,3.78-6.977,18.374,18.374,0,0,1,5.97-4.863,17.166,17.166,0,0,1,7.991-1.82,22.521,22.521,0,0,1,7.518,1.227,12.034,12.034,0,0,1,5.711,4.187h.174V87.5h12.886ZM238.628,126.8a10.544,10.544,0,0,0-2.7-7.528,9.946,9.946,0,0,0-7.6-2.876q-4.9,0-7.6,2.876a11.81,11.81,0,0,0,0,15.054q2.7,2.877,7.6,2.876t7.6-2.876A10.534,10.534,0,0,0,238.628,126.8Z" transform="translate(249.515 -87.502)" fill="#fff"/>
    </g>
    <g id="Group_1555" data-name="Group 1555" transform="translate(210.171 19.542)">
      <rect id="Rectangle_493" data-name="Rectangle 493" width="118.921" height="142.705" fill="#151b29"/>
      <g id="Group_1554" data-name="Group 1554" transform="translate(23.89 23.784)">
        <path id="Path_1237" data-name="Path 1237" d="M164.172,76.606,116.816,29.251h47.356Z" transform="translate(-93.032 -29.251)" fill="#486cd9"/>
        <rect id="Rectangle_494" data-name="Rectangle 494" width="23.784" height="95.137" fill="#fff"/>
        <path id="Path_1238" data-name="Path 1238" d="M154.463,91.213,107.108,43.857h47.356Z" transform="translate(-107.108 -8.074)" fill="#486cd9"/>
      </g>
    </g>
    <g id="Group_1556" data-name="Group 1556" transform="translate(69.648 275.932)">
      <path id="Path_1239" data-name="Path 1239" d="M49.292,127.257h-9.3v-2.305H61.122v2.305H51.828V152.15H49.292Z" transform="translate(-39.995 -123.107)" fill="#fff"/>
      <path id="Path_1240" data-name="Path 1240" d="M48.735,134.077c0-.333-.012-.737-.037-1.21s-.047-.955-.061-1.441-.029-.943-.056-1.365-.039-.75-.039-.98h2.308q.033,1,.056,1.921a5.977,5.977,0,0,0,.1,1.191,7.886,7.886,0,0,1,2.266-2.572,5.624,5.624,0,0,1,3.381-1,3.758,3.758,0,0,1,.671.059c.218.037.443.081.674.132l-.269,2.268a2.779,2.779,0,0,0-.882-.154,6.411,6.411,0,0,0-2.594.48,4.892,4.892,0,0,0-1.806,1.325,5.565,5.565,0,0,0-1.056,1.977,8.344,8.344,0,0,0-.345,2.44v9.682H48.735Z" transform="translate(-27.605 -117.788)" fill="#fff"/>
      <path id="Path_1241" data-name="Path 1241" d="M69.823,143.486a7.755,7.755,0,0,1-3.322,2.92,10.548,10.548,0,0,1-4.358.884,9.423,9.423,0,0,1-3.689-.693,8.313,8.313,0,0,1-2.842-1.938,8.507,8.507,0,0,1-1.828-2.959,10.834,10.834,0,0,1-.632-3.783,10.2,10.2,0,0,1,.652-3.689,8.816,8.816,0,0,1,1.845-2.937,8.608,8.608,0,0,1,2.805-1.96,8.78,8.78,0,0,1,3.572-.71,8.593,8.593,0,0,1,3.594.71,7.886,7.886,0,0,1,2.611,1.881,7.99,7.99,0,0,1,1.592,2.67,8.894,8.894,0,0,1,.539,3.035v1.612h-14.9a7.918,7.918,0,0,0,.287,1.864A6.536,6.536,0,0,0,56.8,142.6a6.661,6.661,0,0,0,2.055,1.845,6.405,6.405,0,0,0,3.322.767,7.424,7.424,0,0,0,3.42-.845,6.165,6.165,0,0,0,2.536-2.305Zm-1.766-7.028a5.267,5.267,0,0,0-.48-2.229,5.95,5.95,0,0,0-1.306-1.823,6.154,6.154,0,0,0-1.96-1.249,6.28,6.28,0,0,0-2.4-.461,5.862,5.862,0,0,0-3.128.767,6.888,6.888,0,0,0-1.979,1.766,7.079,7.079,0,0,0-1.039,1.94,5.112,5.112,0,0,0-.306,1.289Z" transform="translate(-20.92 -117.788)" fill="#fff"/>
      <path id="Path_1242" data-name="Path 1242" d="M62.394,134.077c0-.333-.015-.737-.039-1.21s-.047-.955-.059-1.441-.032-.943-.059-1.365-.037-.75-.037-.98h2.305c.024.666.042,1.306.056,1.921a5.974,5.974,0,0,0,.1,1.191h.115a6.237,6.237,0,0,1,2.308-2.516,6.715,6.715,0,0,1,3.763-1.056,7.568,7.568,0,0,1,3.381.654,5.443,5.443,0,0,1,2.055,1.708,6.424,6.424,0,0,1,1.036,2.44,13.81,13.81,0,0,1,.289,2.842V146.83H75.3V136.382a11.329,11.329,0,0,0-.191-2.095,5.636,5.636,0,0,0-.671-1.825,3.521,3.521,0,0,0-1.345-1.286,4.6,4.6,0,0,0-2.249-.48,6.558,6.558,0,0,0-2.4.441,5.139,5.139,0,0,0-1.957,1.345,6.43,6.43,0,0,0-1.308,2.266,9.645,9.645,0,0,0-.48,3.207v8.876h-2.3Z" transform="translate(-7.802 -117.788)" fill="#fff"/>
      <path id="Path_1243" data-name="Path 1243" d="M87.108,150.13h-.076a5.98,5.98,0,0,1-1.345,1.592,8.051,8.051,0,0,1-1.749,1.115,8.792,8.792,0,0,1-1.977.654,10.282,10.282,0,0,1-2.036.211,10.006,10.006,0,0,1-3.765-.693,8.558,8.558,0,0,1-2.957-1.938,8.957,8.957,0,0,1-1.923-2.959,10.5,10.5,0,0,1,0-7.492,8.971,8.971,0,0,1,1.923-2.957,8.527,8.527,0,0,1,2.957-1.94,10.053,10.053,0,0,1,3.765-.691,10.281,10.281,0,0,1,2.036.211,8.794,8.794,0,0,1,1.977.654,8.132,8.132,0,0,1,1.749,1.112,5.989,5.989,0,0,1,1.345,1.595h.076V124.2h2.305v29.043H87.108Zm.23-5.764a6.99,6.99,0,0,0-.576-2.822,7.208,7.208,0,0,0-1.575-2.305,7.563,7.563,0,0,0-2.344-1.556,7.313,7.313,0,0,0-2.918-.576,7.141,7.141,0,0,0-2.92.576,6.782,6.782,0,0,0-2.229,1.556,6.588,6.588,0,0,0-1.4,2.305,8.582,8.582,0,0,0,0,5.647,6.611,6.611,0,0,0,1.4,2.305,6.82,6.82,0,0,0,2.229,1.556,7.142,7.142,0,0,0,2.92.576,7.314,7.314,0,0,0,2.918-.576,7.608,7.608,0,0,0,2.344-1.556,7.235,7.235,0,0,0,1.575-2.305A7,7,0,0,0,87.338,144.366Z" transform="translate(4.361 -124.199)" fill="#fff"/>
      <path id="Path_1244" data-name="Path 1244" d="M81.8,142.3a4.951,4.951,0,0,0,2.151,2.171,6.333,6.333,0,0,0,3,.75,4.806,4.806,0,0,0,1.46-.23,4.528,4.528,0,0,0,1.306-.652,3.579,3.579,0,0,0,.941-1.019,2.545,2.545,0,0,0,.365-1.365,2.189,2.189,0,0,0-.789-1.842,5.848,5.848,0,0,0-1.94-.963,23.747,23.747,0,0,0-2.533-.6,10.868,10.868,0,0,1-2.536-.767,5.488,5.488,0,0,1-1.94-1.44,3.9,3.9,0,0,1-.786-2.611,4.525,4.525,0,0,1,.539-2.269,4.907,4.907,0,0,1,1.4-1.595,6.076,6.076,0,0,1,1.94-.941,7.969,7.969,0,0,1,2.188-.306,8.26,8.26,0,0,1,3.783.806,5.588,5.588,0,0,1,2.479,2.536l-2.075,1.23a4.832,4.832,0,0,0-1.632-1.862,4.618,4.618,0,0,0-2.555-.635,4.691,4.691,0,0,0-1.286.191,4.459,4.459,0,0,0-1.21.539,3.062,3.062,0,0,0-.9.882,2.133,2.133,0,0,0-.368,1.23,2.055,2.055,0,0,0,.789,1.769,6.084,6.084,0,0,0,1.94.9,23.553,23.553,0,0,0,2.536.556,10.33,10.33,0,0,1,2.536.75,5.2,5.2,0,0,1,1.94,1.5,4.345,4.345,0,0,1,.786,2.785,5.183,5.183,0,0,1-.519,2.4,4.928,4.928,0,0,1-1.421,1.71,6.3,6.3,0,0,1-2.055,1.039,8.366,8.366,0,0,1-2.42.345,9.847,9.847,0,0,1-4.206-.884,6.372,6.372,0,0,1-2.937-2.727Z" transform="translate(17.661 -117.788)" fill="#fff"/>
      <path id="Path_1245" data-name="Path 1245" d="M103.523,143.486a7.775,7.775,0,0,1-3.324,2.92,10.548,10.548,0,0,1-4.358.884,9.423,9.423,0,0,1-3.689-.693,8.313,8.313,0,0,1-2.842-1.938,8.538,8.538,0,0,1-1.825-2.959,10.778,10.778,0,0,1-.635-3.783,10.149,10.149,0,0,1,.654-3.689,8.772,8.772,0,0,1,1.842-2.937,8.66,8.66,0,0,1,2.805-1.96,8.78,8.78,0,0,1,3.572-.71,8.585,8.585,0,0,1,3.594.71,7.861,7.861,0,0,1,2.612,1.881,8.038,8.038,0,0,1,1.595,2.67,8.95,8.95,0,0,1,.537,3.035v1.612h-14.9a7.917,7.917,0,0,0,.287,1.864A6.583,6.583,0,0,0,90.5,142.6a6.661,6.661,0,0,0,2.055,1.845,6.411,6.411,0,0,0,3.322.767,7.424,7.424,0,0,0,3.42-.845,6.166,6.166,0,0,0,2.536-2.305Zm-1.769-7.028a5.3,5.3,0,0,0-.478-2.229,5.957,5.957,0,0,0-1.308-1.823,6.17,6.17,0,0,0-1.957-1.249,6.3,6.3,0,0,0-2.4-.461,5.868,5.868,0,0,0-3.128.767,6.888,6.888,0,0,0-1.979,1.766,7.079,7.079,0,0,0-1.039,1.94,5.111,5.111,0,0,0-.306,1.289Z" transform="translate(27.936 -117.788)" fill="#fff"/>
      <path id="Path_1246" data-name="Path 1246" d="M106.16,133.907h-5.074V145.47a2.485,2.485,0,0,0,.654,1.842,2.432,2.432,0,0,0,1.806.654,5.307,5.307,0,0,0,1.325-.172,8.868,8.868,0,0,0,1.289-.443l.191,2.075a13.985,13.985,0,0,1-1.5.424,6.931,6.931,0,0,1-1.5.191,5.532,5.532,0,0,1-2.112-.365,3.635,3.635,0,0,1-2.207-2.42,6.065,6.065,0,0,1-.25-1.786V133.907H94.942v-2.075h3.841v-5.108h2.3v5.108h5.074Z" transform="translate(39.668 -120.538)" fill="#fff"/>
      <path id="Path_1247" data-name="Path 1247" d="M111.4,133.907h-5.071V145.47a2.494,2.494,0,0,0,.652,1.842,2.434,2.434,0,0,0,1.808.654,5.336,5.336,0,0,0,1.325-.172,8.944,8.944,0,0,0,1.286-.443l.191,2.075a13.985,13.985,0,0,1-1.5.424,6.929,6.929,0,0,1-1.5.191,5.554,5.554,0,0,1-2.114-.365,3.77,3.77,0,0,1-1.421-.98,3.818,3.818,0,0,1-.786-1.44,6.147,6.147,0,0,1-.25-1.786V133.907h-3.841v-2.075h3.841v-5.108h2.305v5.108H111.4Z" transform="translate(47.261 -120.538)" fill="#fff"/>
      <path id="Path_1248" data-name="Path 1248" d="M106.372,126.961a1.728,1.728,0,1,1,3.457,0,1.728,1.728,0,1,1-3.457,0Zm.578,7.031h2.305v17.749H106.95Z" transform="translate(56.239 -122.698)" fill="#fff"/>
      <path id="Path_1249" data-name="Path 1249" d="M110.329,134.077c0-.333-.015-.737-.037-1.21s-.047-.955-.061-1.441-.032-.943-.056-1.365-.039-.75-.039-.98h2.305q.037,1,.059,1.921a5.787,5.787,0,0,0,.1,1.191h.115a6.229,6.229,0,0,1,2.305-2.516,6.721,6.721,0,0,1,3.763-1.056,7.553,7.553,0,0,1,3.381.654,5.406,5.406,0,0,1,2.055,1.708,6.428,6.428,0,0,1,1.039,2.44,13.978,13.978,0,0,1,.287,2.842V146.83h-2.3V136.382a11.542,11.542,0,0,0-.191-2.095,5.638,5.638,0,0,0-.674-1.825,3.5,3.5,0,0,0-1.345-1.286,4.6,4.6,0,0,0-2.249-.48,6.554,6.554,0,0,0-2.4.441,5.147,5.147,0,0,0-1.96,1.345,6.426,6.426,0,0,0-1.306,2.266,9.646,9.646,0,0,0-.48,3.207v8.876h-2.305Z" transform="translate(61.695 -117.788)" fill="#fff"/>
      <path id="Path_1250" data-name="Path 1250" d="M137.212,145.677a12.674,12.674,0,0,1-.958,5.341,8.425,8.425,0,0,1-2.4,3.15,7.936,7.936,0,0,1-3.089,1.5,13.32,13.32,0,0,1-3,.385,13.762,13.762,0,0,1-2.631-.25,12.394,12.394,0,0,1-2.438-.73,9.979,9.979,0,0,1-2.1-1.171,8.3,8.3,0,0,1-1.632-1.575l1.806-1.69a7.321,7.321,0,0,0,3.072,2.536,9.654,9.654,0,0,0,3.92.806,8.4,8.4,0,0,0,2.979-.461,5.9,5.9,0,0,0,2-1.21,5.81,5.81,0,0,0,1.227-1.651,8.631,8.631,0,0,0,.654-1.806,9.512,9.512,0,0,0,.25-1.71c.025-.539.039-.973.039-1.306v-2.457h-.076a7.1,7.1,0,0,1-2.709,2.533,8.342,8.342,0,0,1-4.015.924,9.614,9.614,0,0,1-3.687-.71,9.39,9.39,0,0,1-5.051-4.86,8.678,8.678,0,0,1,0-7.068,9.14,9.14,0,0,1,2.036-2.881,9.86,9.86,0,0,1,3.016-1.96,9.36,9.36,0,0,1,3.687-.73,8.341,8.341,0,0,1,4.015.921,7.1,7.1,0,0,1,2.709,2.536h.076v-3h2.3Zm-2.227-7.952a6.861,6.861,0,0,0-.556-2.746,7,7,0,0,0-3.726-3.726,7.065,7.065,0,0,0-5.495,0,7,7,0,0,0-3.726,3.726,7.059,7.059,0,0,0,0,5.492,7.111,7.111,0,0,0,1.5,2.229,7.04,7.04,0,0,0,2.227,1.5,7.037,7.037,0,0,0,5.495,0,6.983,6.983,0,0,0,3.726-3.726A6.853,6.853,0,0,0,134.985,137.724Z" transform="translate(73.994 -117.788)" fill="#fff"/>
      <path id="Path_1251" data-name="Path 1251" d="M132.387,124.2h2.3v14.4h.078a5.988,5.988,0,0,1,1.345-1.595,8.175,8.175,0,0,1,1.747-1.112,8.854,8.854,0,0,1,1.979-.654,10.281,10.281,0,0,1,2.036-.211,9.906,9.906,0,0,1,3.746.691,8.7,8.7,0,0,1,4.9,4.9,10.465,10.465,0,0,1,0,7.492,8.68,8.68,0,0,1-4.9,4.9,9.859,9.859,0,0,1-3.746.693,10.282,10.282,0,0,1-2.036-.211,8.852,8.852,0,0,1-1.979-.654,8.093,8.093,0,0,1-1.747-1.115,5.979,5.979,0,0,1-1.345-1.592h-.078v3.111h-2.3Zm2.075,20.167a7,7,0,0,0,.576,2.825,7.2,7.2,0,0,0,1.575,2.305,7.551,7.551,0,0,0,2.344,1.556,7.305,7.305,0,0,0,2.918.576,7.13,7.13,0,0,0,2.918-.576,6.8,6.8,0,0,0,2.232-1.556,6.61,6.61,0,0,0,1.4-2.305,8.541,8.541,0,0,0,0-5.647,6.588,6.588,0,0,0-1.4-2.305,6.767,6.767,0,0,0-2.232-1.556,7.129,7.129,0,0,0-2.918-.576,7.3,7.3,0,0,0-2.918.576,7.506,7.506,0,0,0-2.344,1.556,7.169,7.169,0,0,0-1.575,2.305A6.99,6.99,0,0,0,134.462,144.366Z" transform="translate(93.956 -124.199)" fill="#fff"/>
      <path id="Path_1252" data-name="Path 1252" d="M148.642,152.05a6.591,6.591,0,0,1-1.805,2.729,4.535,4.535,0,0,1-3.072,1,7.074,7.074,0,0,1-1.154-.1,9.972,9.972,0,0,1-1.115-.25l.233-2.151c.333.1.671.2,1.017.289a4.277,4.277,0,0,0,1.058.132,2.2,2.2,0,0,0,1.093-.267,2.893,2.893,0,0,0,.828-.693,4.708,4.708,0,0,0,.6-.941,11.3,11.3,0,0,0,.441-1.056l1.614-4.111-7.222-17.825h2.572l5.877,14.944,5.725-14.944h2.46Z" transform="translate(106.665 -117.515)" fill="#fff"/>
      <path id="Path_1253" data-name="Path 1253" d="M169.62,150.13h-.076a6.026,6.026,0,0,1-1.345,1.592,8.112,8.112,0,0,1-1.749,1.115,8.811,8.811,0,0,1-1.979.654,10.265,10.265,0,0,1-2.036.211,10.023,10.023,0,0,1-3.765-.693,8.581,8.581,0,0,1-2.957-1.938,8.949,8.949,0,0,1-1.921-2.959,10.5,10.5,0,0,1,0-7.492,8.963,8.963,0,0,1,1.921-2.957,8.551,8.551,0,0,1,2.957-1.94,10.071,10.071,0,0,1,3.765-.691,10.263,10.263,0,0,1,2.036.211,8.814,8.814,0,0,1,1.979.654,8.2,8.2,0,0,1,1.749,1.112,6.035,6.035,0,0,1,1.345,1.595h.076V124.2h2.3v29.043h-2.3Zm.23-5.764a6.951,6.951,0,0,0-.578-2.822,7.2,7.2,0,0,0-1.573-2.305,7.592,7.592,0,0,0-2.344-1.556,7.316,7.316,0,0,0-2.92-.576,7.138,7.138,0,0,0-2.918.576,6.782,6.782,0,0,0-2.229,1.556,6.552,6.552,0,0,0-1.4,2.305,8.542,8.542,0,0,0,0,5.647,6.574,6.574,0,0,0,1.4,2.305,6.82,6.82,0,0,0,2.229,1.556,7.138,7.138,0,0,0,2.918.576,7.317,7.317,0,0,0,2.92-.576A7.638,7.638,0,0,0,167.7,149.5a7.228,7.228,0,0,0,1.573-2.305A6.964,6.964,0,0,0,169.85,144.366Z" transform="translate(123.988 -124.199)" fill="#fff"/>
      <path id="Path_1254" data-name="Path 1254" d="M179.355,143.486a7.775,7.775,0,0,1-3.324,2.92,10.548,10.548,0,0,1-4.358.884,9.423,9.423,0,0,1-3.689-.693,8.313,8.313,0,0,1-2.842-1.938,8.537,8.537,0,0,1-1.825-2.959,10.778,10.778,0,0,1-.634-3.783,10.149,10.149,0,0,1,.654-3.689,8.772,8.772,0,0,1,1.842-2.937,8.66,8.66,0,0,1,2.8-1.96,8.781,8.781,0,0,1,3.572-.71,8.585,8.585,0,0,1,3.594.71,7.862,7.862,0,0,1,2.612,1.881,8.04,8.04,0,0,1,1.595,2.67,8.951,8.951,0,0,1,.536,3.035v1.612h-14.9a7.814,7.814,0,0,0,.289,1.864,6.529,6.529,0,0,0,1.056,2.21,6.661,6.661,0,0,0,2.055,1.845,6.411,6.411,0,0,0,3.322.767,7.424,7.424,0,0,0,3.42-.845,6.165,6.165,0,0,0,2.536-2.305Zm-1.769-7.028a5.3,5.3,0,0,0-.478-2.229,5.957,5.957,0,0,0-1.308-1.823,6.17,6.17,0,0,0-1.957-1.249,6.3,6.3,0,0,0-2.4-.461,5.868,5.868,0,0,0-3.128.767,6.888,6.888,0,0,0-1.979,1.766,7.078,7.078,0,0,0-1.039,1.94,5.111,5.111,0,0,0-.306,1.289Z" transform="translate(137.879 -117.788)" fill="#fff"/>
      <path id="Path_1255" data-name="Path 1255" d="M173.031,142.3a4.958,4.958,0,0,0,2.148,2.171,6.333,6.333,0,0,0,3,.75,4.821,4.821,0,0,0,1.463-.23,4.514,4.514,0,0,0,1.3-.652,3.622,3.622,0,0,0,.943-1.019,2.565,2.565,0,0,0,.363-1.365,2.187,2.187,0,0,0-.786-1.842,5.9,5.9,0,0,0-1.94-.963,23.891,23.891,0,0,0-2.533-.6,10.831,10.831,0,0,1-2.536-.767,5.445,5.445,0,0,1-1.94-1.44,3.9,3.9,0,0,1-.789-2.611,4.55,4.55,0,0,1,.539-2.269,4.965,4.965,0,0,1,1.4-1.595,6.1,6.1,0,0,1,1.94-.941,7.973,7.973,0,0,1,2.19-.306,8.267,8.267,0,0,1,3.783.806,5.612,5.612,0,0,1,2.479,2.536l-2.075,1.23a4.871,4.871,0,0,0-1.632-1.862,4.624,4.624,0,0,0-2.555-.635,4.708,4.708,0,0,0-1.289.191,4.526,4.526,0,0,0-1.21.539,3.121,3.121,0,0,0-.9.882,2.15,2.15,0,0,0-.365,1.23,2.053,2.053,0,0,0,.786,1.769,6.134,6.134,0,0,0,1.94.9,23.549,23.549,0,0,0,2.536.556,10.3,10.3,0,0,1,2.536.75,5.179,5.179,0,0,1,1.94,1.5,4.345,4.345,0,0,1,.789,2.785,5.214,5.214,0,0,1-.519,2.4,4.955,4.955,0,0,1-1.421,1.71,6.327,6.327,0,0,1-2.055,1.039,8.4,8.4,0,0,1-2.423.345,9.836,9.836,0,0,1-4.2-.884,6.378,6.378,0,0,1-2.94-2.727Z" transform="translate(149.928 -117.788)" fill="#fff"/>
      <path id="Path_1256" data-name="Path 1256" d="M178.41,126.961a1.739,1.739,0,1,1,1.732,1.73,1.711,1.711,0,0,1-1.732-1.73Zm.578,7.031h2.305v17.749h-2.305Z" transform="translate(160.681 -122.698)" fill="#fff"/>
      <path id="Path_1257" data-name="Path 1257" d="M200.532,145.677a12.632,12.632,0,0,1-.96,5.341,8.446,8.446,0,0,1-2.4,3.15,7.962,7.962,0,0,1-3.092,1.5,13.3,13.3,0,0,1-3,.385,13.783,13.783,0,0,1-2.631-.25,12.4,12.4,0,0,1-2.438-.73,9.978,9.978,0,0,1-2.1-1.171,8.374,8.374,0,0,1-1.632-1.575l1.808-1.69a7.321,7.321,0,0,0,3.072,2.536,9.651,9.651,0,0,0,3.917.806,8.393,8.393,0,0,0,2.979-.461,5.879,5.879,0,0,0,2-1.21,5.807,5.807,0,0,0,1.227-1.651,8.491,8.491,0,0,0,.654-1.806,9.529,9.529,0,0,0,.252-1.71c.022-.539.037-.973.037-1.306v-2.457h-.076a7.1,7.1,0,0,1-2.709,2.533,8.325,8.325,0,0,1-4.013.924,9.636,9.636,0,0,1-3.689-.71,9.39,9.39,0,0,1-5.052-4.86,8.7,8.7,0,0,1,0-7.068,9.18,9.18,0,0,1,2.036-2.881,9.86,9.86,0,0,1,3.016-1.96,9.381,9.381,0,0,1,3.689-.73,8.324,8.324,0,0,1,4.013.921,7.1,7.1,0,0,1,2.709,2.536h.076v-3h2.305Zm-2.229-7.952a6.86,6.86,0,0,0-.556-2.746,6.982,6.982,0,0,0-3.726-3.726,7.065,7.065,0,0,0-5.495,0,7.157,7.157,0,0,0-2.227,1.5,7.082,7.082,0,0,0-1.5,2.227,7.031,7.031,0,0,0,0,5.492,6.967,6.967,0,0,0,3.724,3.726,7.037,7.037,0,0,0,5.495,0,6.961,6.961,0,0,0,3.726-3.726A6.852,6.852,0,0,0,198.3,137.724Z" transform="translate(165.796 -117.788)" fill="#fff"/>
      <path id="Path_1258" data-name="Path 1258" d="M191.947,134.077c0-.333-.015-.737-.037-1.21s-.047-.955-.061-1.441-.029-.943-.056-1.365-.039-.75-.039-.98h2.308q.033,1,.056,1.921a5.976,5.976,0,0,0,.1,1.191h.115a6.23,6.23,0,0,1,2.305-2.516,6.729,6.729,0,0,1,3.765-1.056,7.549,7.549,0,0,1,3.378.654,5.406,5.406,0,0,1,2.055,1.708,6.429,6.429,0,0,1,1.039,2.44,13.975,13.975,0,0,1,.287,2.842V146.83h-2.3V136.382a11.544,11.544,0,0,0-.191-2.095,5.64,5.64,0,0,0-.674-1.825,3.5,3.5,0,0,0-1.345-1.286,4.594,4.594,0,0,0-2.246-.48,6.558,6.558,0,0,0-2.4.441,5.147,5.147,0,0,0-1.96,1.345,6.464,6.464,0,0,0-1.306,2.266,9.648,9.648,0,0,0-.48,3.207v8.876h-2.305Z" transform="translate(180.028 -117.788)" fill="#fff"/>
      <path id="Path_1259" data-name="Path 1259" d="M200.583,136.485a1.84,1.84,0,1,1,.539,1.306A1.771,1.771,0,0,1,200.583,136.485Z" transform="translate(192.828 -109.057)" fill="#fff"/>
    </g>
  </g>
</svg>
