<svg xmlns="http://www.w3.org/2000/svg" width="16.103" height="17.58" viewBox="0 0 16.103 17.58">
  <g id="Group_1103" data-name="Group 1103" transform="translate(0.495 0.495)">
    <g id="Path_1027" data-name="Path 1027" transform="translate(-56.22 -84.399)" fill="none" stroke-linejoin="round">
      <path d="M63.835,99.641h0a5.645,5.645,0,0,1-5.789-5.488V92.4a14.1,14.1,0,0,0,8.547-4.9,6.487,6.487,0,0,0,3.031,3.767v2.883A5.645,5.645,0,0,1,63.835,99.641Z" stroke="none"/>
      <path d="M 63.83499908447266 98.6510009765625 C 66.48117828369141 98.6510009765625 68.63400268554688 96.63320922851562 68.63400268554688 94.15299987792969 L 68.63400268554688 91.85625457763672 C 67.73271942138672 91.28895568847656 66.95688629150391 90.41610717773438 66.31511688232422 89.24815368652344 C 64.26328277587891 91.25328063964844 61.82283782958984 92.58314514160156 59.0359992980957 93.21369934082031 L 59.0359992980957 94.15299987792969 C 59.0359992980957 96.63320922851562 61.18881988525391 98.6510009765625 63.83499908447266 98.6510009765625 M 63.83499908447266 99.64099884033203 C 60.63800048828125 99.64099884033203 58.04599761962891 97.18399810791016 58.04599761962891 94.15299987792969 L 58.04599761962891 92.40200042724609 C 61.32899856567383 91.83300018310547 64.21199798583984 90.28399658203125 66.59300231933594 87.50299835205078 C 67.32699584960938 89.36599731445312 68.31800079345703 90.66600036621094 69.62400054931641 91.26999664306641 L 69.62400054931641 94.15299987792969 C 69.62400054931641 97.18399810791016 67.03199768066406 99.64099884033203 63.83499908447266 99.64099884033203 Z" stroke="none" fill="#fff"/>
    </g>
    <path id="Path_1028" data-name="Path 1028" d="M61.885,100.989a5.7,5.7,0,0,1-5.665-5.881V91.955A7.556,7.556,0,0,1,63.777,84.4h0a7.556,7.556,0,0,1,7.556,7.556v3.153c0,3.248-2.171,5.881-5.419,5.881" transform="translate(-56.22 -84.399)" fill="none" stroke="#fff" stroke-linejoin="round" stroke-width="0.99"/>
  </g>
</svg>
