<svg xmlns="http://www.w3.org/2000/svg" width="16.99" height="16.99" viewBox="0 0 16.99 16.99">
  <g id="Group_1095" data-name="Group 1095" transform="translate(0.495 0.495)">
    <path id="Path_686" data-name="Path 686" d="M3.4,4.963V3.8A2.193,2.193,0,0,0,5.433,1.679c0-1.03-.549-1.659-1.911-2.14-.973-.366-1.373-.606-1.373-.984,0-.32.24-.641.984-.641A3.794,3.794,0,0,1,4.781-1.7L5.113-2.99a4.119,4.119,0,0,0-1.659-.378V-4.374H2.332v1.087A2.114,2.114,0,0,0,.4-1.25C.4-.14,1.234.432,2.458.844c.847.286,1.213.561,1.213,1,0,.458-.446.709-1.1.709a4.04,4.04,0,0,1-1.9-.5L.33,3.384a4.6,4.6,0,0,0,1.945.492V4.963Z" transform="translate(5.118 7.705)" fill="#fff"/>
    <circle id="Ellipse_32" data-name="Ellipse 32" cx="8" cy="8" r="8" fill="none" stroke="#fff" stroke-linejoin="round" stroke-width="0.99"/>
  </g>
</svg>
