<svg xmlns="http://www.w3.org/2000/svg" width="149" height="27.87" viewBox="0 0 149 27.87">
  <g id="ssy-wordmark-color" transform="translate(-1055.645 7091.332)">
    <path id="Path_863" data-name="Path 863" d="M87.732,67.188l-.159-4.024h.159c1.051,3.235,2.945,4.813,5.259,4.813a3.935,3.935,0,0,0,4.129-3.971c0-2.446-1.893-3.471-4.155-4.6l-1.315-.658c-1.868-.92-3.683-2.13-3.683-4.943a5.113,5.113,0,0,1,5.34-5.234A11.326,11.326,0,0,1,97.961,49.7v3.13H97.8c-1.026-2.735-2.657-3.893-4.6-3.893a3.5,3.5,0,0,0-3.682,3.708c0,2.314,1.735,3.156,3.287,3.945l1.316.657c2.313,1.157,4.549,2.394,4.549,5.549,0,3.182-2.419,5.549-6,5.549a11.778,11.778,0,0,1-4.943-1.157" transform="translate(968.071 -7139.9)" fill="#333"/>
    <path id="Path_864" data-name="Path 864" d="M126.472,63.973l-.6,4.418H112.613v-.158c1.788,0,1.893-1.184,1.893-3.13V52.533c0-1.947-.105-3.13-1.893-3.13v-.158h12.859l.342,3.945h-.157c-1.341-3-2.21-3.524-5.076-3.524H116.82v8.547h2.946c2.367,0,2.892-.631,3.339-2.577h.158V61.4h-.158c-.447-1.867-.972-2.761-3.339-2.761H116.82v8.1c0,.788.237,1.236,1.053,1.236h3.1c2.787,0,3.788-.474,5.339-4Z" transform="translate(954.704 -7140.261)" fill="#333"/>
    <path id="Path_865" data-name="Path 865" d="M167.06,49.245V49.4c-1.341.158-2.025,1.683-3,4.918l-4.419,14.333h-.21l-4.287-13.176-4.812,13.176h-.21L145.1,52.611c-.684-2.183-1.288-3.1-2.394-3.209v-.158h6.129V49.4c-1.6.106-2.052.894-1.552,2.5l4,12.808,3.6-9.994-.684-2.1c-.737-2.209-1.263-3.1-2.446-3.209v-.158h6.127V49.4c-1.578.106-2.025.894-1.525,2.5l4.075,12.571,3.13-10.309c.947-3.182,1.079-4.6-.841-4.761v-.158Z" transform="translate(938.638 -7140.261)" fill="#333"/>
    <path id="Path_866" data-name="Path 866" d="M196.309,67.189l-.158-4.025h.158c1.051,3.235,2.945,4.812,5.259,4.812a3.934,3.934,0,0,0,4.129-3.971c0-2.445-1.893-3.471-4.155-4.6l-1.315-.657c-1.868-.921-3.683-2.13-3.683-4.944a5.113,5.113,0,0,1,5.34-5.233,11.318,11.318,0,0,1,4.654,1.131v3.129h-.157c-1.026-2.734-2.657-3.892-4.6-3.892a3.5,3.5,0,0,0-3.682,3.708c0,2.314,1.735,3.156,3.287,3.945l1.316.657c2.313,1.157,4.549,2.394,4.549,5.55,0,3.181-2.419,5.548-6,5.548a11.8,11.8,0,0,1-4.943-1.156" transform="translate(910.106 -7139.901)" fill="#333"/>
    <path id="Path_867" data-name="Path 867" d="M235.049,63.972l-.6,4.419H221.19v-.158c1.788,0,1.893-1.183,1.893-3.13V52.533c0-1.947-.105-3.13-1.893-3.13v-.158h12.859l.342,3.944h-.157c-1.341-3-2.21-3.523-5.076-3.523H225.4v8.547h2.946c2.367,0,2.892-.632,3.339-2.577h.159v5.759h-.159c-.447-1.867-.972-2.761-3.339-2.761H225.4v8.1c0,.789.237,1.236,1.053,1.236h3.1c2.788,0,3.788-.474,5.339-4Z" transform="translate(896.739 -7140.261)" fill="#333"/>
    <path id="Path_868" data-name="Path 868" d="M275.637,49.245V49.4c-1.341.158-2.025,1.683-3,4.918l-4.419,14.334h-.21l-4.287-13.176-4.812,13.176h-.21l-5.023-16.043c-.684-2.183-1.288-3.1-2.394-3.209v-.158h6.129V49.4c-1.6.106-2.052.894-1.551,2.5l4,12.808,3.6-9.994-.684-2.1c-.737-2.209-1.263-3.1-2.446-3.209v-.158h6.127V49.4c-1.578.106-2.025.894-1.525,2.5l4.075,12.571,3.13-10.309c.947-3.182,1.079-4.6-.841-4.761v-.158Z" transform="translate(880.673 -7140.261)" fill="#333"/>
    <path id="Path_869" data-name="Path 869" d="M352.648,95.06a8.971,8.971,0,0,1-2.163,2.291,15.034,15.034,0,0,1-2.726,1.673,19.651,19.651,0,0,1-3,1.147c-.513.159-1.033.28-1.555.407-.523.11-1.048.218-1.576.3a32.425,32.425,0,0,1-6.376.36,45.738,45.738,0,0,1-6.307-.692l-1.541-.289-1.49-.291c-.993-.191-1.988-.363-2.981-.539-1.99-.33-3.98-.628-5.977-.84a51.61,51.61,0,0,0-6-.325,26.271,26.271,0,0,0-3,.2,12.518,12.518,0,0,0-1.493.261,7.175,7.175,0,0,0-1.459.475,8.243,8.243,0,0,1,2.707-1.646,18.158,18.158,0,0,1,3.059-.918A30.93,30.93,0,0,1,317.086,96a48.275,48.275,0,0,1,6.3.42c.52.07,1.039.14,1.556.221l1.548.265c.515.09,1.026.2,1.538.3l1.488.3a50.891,50.891,0,0,0,11.875,1.075,26.673,26.673,0,0,0,5.87-.878,14.213,14.213,0,0,0,5.39-2.645" transform="translate(851.997 -7164.72)" fill="#7b8e61"/>
    <path id="Path_870" data-name="Path 870" d="M319.018,49.248v.157c-1.447.131-2.656,2.1-4.1,4.971l-2.709,5.313v5.417c0,1.947.105,3.13,1.893,3.13v.158H308v-.158c1.788,0,1.894-1.183,1.894-3.13v-4.97l-3.839-7.521c-1.21-2.342-1.71-3.078-2.526-3.209v-.157H309.5v.157c-1.578.1-1.973,1.026-1.21,2.5l3.655,7.207,2.5-4.893c1.525-3.024,1.971-4.576.237-4.812v-.157Z" transform="translate(852.782 -7140.263)" fill="#a35c3c"/>
    <path id="Path_871" data-name="Path 871" d="M334.7,58.51c0-5.892,3.445-9.942,8.546-9.942,5.155,0,8.521,3.84,8.521,9.837,0,5.89-3.471,9.94-8.573,9.94-5.154,0-8.494-3.84-8.494-9.836m14.465-.053c0-5.312-2.131-9.52-5.971-9.52s-5.917,4.05-5.917,9.52c0,5.313,2.155,9.52,5.969,9.52,3.84,0,5.919-4.049,5.919-9.52" transform="translate(836.143 -7139.9)" fill="#a35c3c"/>
    <path id="Path_872" data-name="Path 872" d="M373.757,62.133v-9.6c0-1.945-.1-3.13-1.895-3.13v-.157h6.129V49.4c-1.789,0-1.893,1.184-1.893,3.13v9.415c0,4.261,1.341,6.128,4.576,6.128s5.1-1.868,5.1-6V54.006c0-2.577-.422-4.6-2.21-4.6v-.157H388.3V49.4c-1.788,0-2.051,2.025-2.051,4.6V62.08c0,4.445-2.051,6.627-6.022,6.627-4.208,0-6.469-2.077-6.469-6.574" transform="translate(816.301 -7140.262)" fill="#a35c3c"/>
  </g>
</svg>
