<svg xmlns="http://www.w3.org/2000/svg" xmlns:xlink="http://www.w3.org/1999/xlink" width="433.325" height="445" viewBox="0 0 433.325 445">
  <defs>
    <filter id="Rectangle_325" x="12.27" y="-29.32" width="407.072" height="471.614" filterUnits="userSpaceOnUse">
      <feOffset dy="10" input="SourceAlpha"/>
      <feGaussianBlur stdDeviation="15" result="blur"/>
      <feFlood flood-opacity="0.059"/>
      <feComposite operator="in" in2="blur"/>
      <feComposite in="SourceGraphic"/>
    </filter>
    <linearGradient id="linear-gradient" x1="0.5" x2="0.5" y2="1" gradientUnits="objectBoundingBox">
      <stop offset="0" stop-color="#486cd9"/>
      <stop offset="1" stop-color="#294496"/>
    </linearGradient>
    <filter id="Rectangle_174" x="0" y="0" width="433.325" height="445" filterUnits="userSpaceOnUse">
      <feOffset dy="10" input="SourceAlpha"/>
      <feGaussianBlur stdDeviation="15" result="blur-2"/>
      <feFlood flood-opacity="0.059"/>
      <feComposite operator="in" in2="blur-2"/>
      <feComposite in="SourceGraphic"/>
    </filter>
    <linearGradient id="linear-gradient-2" x1="0.748" y1="1" x2="0.805" gradientUnits="objectBoundingBox">
      <stop offset="0" stop-color="#486cd9"/>
      <stop offset="1" stop-color="#97d5cd"/>
    </linearGradient>
    <linearGradient id="linear-gradient-7" x1="0.748" y1="1" x2="0.805" gradientUnits="objectBoundingBox">
      <stop offset="0" stop-color="#486cd9"/>
      <stop offset="1" stop-color="#a7bdff"/>
    </linearGradient>
    <linearGradient id="linear-gradient-8" x1="0.208" y1="0.407" x2="1.5" y2="-0.53" gradientUnits="objectBoundingBox">
      <stop offset="0" stop-color="#6b8ae7"/>
      <stop offset="1" stop-color="#97d5cd"/>
    </linearGradient>
    <linearGradient id="linear-gradient-10" x1="0.208" y1="0.593" x2="1.5" y2="1.53" xlink:href="#linear-gradient-8"/>
    <radialGradient id="radial-gradient" cx="0.673" cy="0.327" r="0.5" gradientUnits="objectBoundingBox">
      <stop offset="0" stop-color="#726eff"/>
      <stop offset="1" stop-color="#2a3864"/>
    </radialGradient>
  </defs>
  <g id="Your_Financials" data-name="Your Financials" transform="translate(-926.361 -810.5)">
    <g transform="matrix(1, 0, 0, 1, 926.36, 810.5)" filter="url(#Rectangle_174)">
      <rect id="Rectangle_174-2" data-name="Rectangle 174" width="343.325" height="355" rx="10" transform="translate(45 35)" fill="url(#linear-gradient)"/>
    </g>
    <path id="Path_1093" data-name="Path 1093" d="M0,23.341S44.145-20.428,174.958-20.428,343.686,23.341,343.686,23.341l.339,57.053c0,6.135-2.173,12.334-10.545,12.334H8.465A8.757,8.757,0,0,1,0,83.707Z" transform="translate(971 1107.772)" fill="#4063cc"/>
    <g id="Group_992" data-name="Group 992" transform="translate(1048.115 1001.205)" opacity="0.8">
      <g id="Group_986" data-name="Group 986" transform="translate(38.714 108.318)">
        <path id="Path_951" data-name="Path 951" d="M1045.029,2245.957h-23.622c-1.656,0-3.184,1.378-3.184,2.334v58.551c0,.956,1.528,1.9,3.184,1.9h23.622c1.656,0,3.572-.941,3.572-1.9v-58.551C1048.6,2247.335,1046.684,2245.957,1045.029,2245.957Z" transform="translate(-1018.223 -2245.957)" fill="url(#linear-gradient-2)"/>
      </g>
      <g id="Group_987" data-name="Group 987" transform="translate(0 128.783)">
        <path id="Path_952" data-name="Path 952" d="M499.3,2540.369c0-.495-1.493-1.005-3.148-1.005H472.8c-1.656,0-3.134.511-3.134,1.005v40.35c0,.495,1.479.962,3.134.962h23.354c1.656,0,3.148-.467,3.148-.962Z" transform="translate(-469.667 -2539.363)" fill="url(#linear-gradient-2)"/>
      </g>
      <path id="Union_5" data-name="Union 5" d="M8.779,171.1a2.878,2.878,0,0,1-2.93-2.558V35.082H1.392c-1.128,0-1.786-1.515-1.134-2.61L19.162.7A1.269,1.269,0,0,1,21.418.678L40.907,32.452c.671,1.093.015,2.63-1.123,2.63H35.856V168.541c0,1.215-1.781,2.558-3.436,2.558Z" transform="translate(147.897 0)" fill="url(#linear-gradient-2)"/>
      <g id="Group_989" data-name="Group 989" transform="translate(77.429 82.606)">
        <path id="Path_954" data-name="Path 954" d="M1609.2,1879.023c0-.9-1.428-1.722-3.083-1.722h-23.354c-1.655,0-2.828.827-2.828,1.722v85.052c0,.895,1.173,1.719,2.828,1.719h23.354c1.656,0,3.083-.825,3.083-1.719Z" transform="translate(-1579.931 -1877.3)" fill="url(#linear-gradient-2)"/>
      </g>
      <g id="Group_990" data-name="Group 990" transform="translate(115.353 56.379)">
        <path id="Path_955" data-name="Path 955" d="M2153.558,1502.941c0-1-1.311-1.672-2.967-1.672h-23.354c-1.656,0-2.945.668-2.945,1.672v111.315c0,1,1.289,1.733,2.945,1.733h23.354c1.656,0,2.967-.729,2.967-1.733Z" transform="translate(-2124.292 -1501.269)" fill="url(#linear-gradient-2)"/>
      </g>
    </g>
    <g id="Group_999" data-name="Group 999" transform="translate(1075.323 988.731)">
      <path id="Path_961" data-name="Path 961" d="M850.335,2914.92a.41.41,0,0,1-.317-.151q-.362-.438-.716-.881a.437.437,0,0,1,.057-.6.408.408,0,0,1,.585.059q.35.437.707.87a.436.436,0,0,1-.047.6A.406.406,0,0,1,850.335,2914.92Z" transform="translate(-835.777 -2764.603)" fill="#e2ebd6"/>
      <path id="Path_962" data-name="Path 962" d="M699.692,1319.5a.411.411,0,0,1-.33-.167c-.45-.6-.895-1.22-1.321-1.834a.436.436,0,0,1,.1-.6.408.408,0,0,1,.58.1c.421.606.86,1.215,1.3,1.81a.437.437,0,0,1-.077.6A.406.406,0,0,1,699.692,1319.5Zm-2.563-3.69a.412.412,0,0,1-.347-.191c-.407-.631-.809-1.279-1.194-1.925a.435.435,0,0,1,.137-.589.409.409,0,0,1,.572.141c.38.637.777,1.276,1.178,1.9a.436.436,0,0,1-.117.593A.405.405,0,0,1,697.129,1315.808Zm-2.3-3.866a.414.414,0,0,1-.363-.218c-.364-.665-.72-1.341-1.055-2.009a.434.434,0,0,1,.179-.576.411.411,0,0,1,.561.184c.331.659.681,1.326,1.041,1.981a.435.435,0,0,1-.158.583A.4.4,0,0,1,694.825,1311.942Zm-2.023-4.029a.414.414,0,0,1-.377-.246c-.314-.688-.619-1.39-.905-2.085a.433.433,0,0,1,.221-.561.412.412,0,0,1,.545.227c.282.685.583,1.377.892,2.056a.433.433,0,0,1-.2.569A.4.4,0,0,1,692.8,1307.912Zm-1.719-4.175a.417.417,0,0,1-.389-.277c-.262-.713-.512-1.437-.744-2.153a.431.431,0,0,1,.263-.542.414.414,0,0,1,.526.271c.228.7.475,1.419.733,2.121a.432.432,0,0,1-.242.552A.407.407,0,0,1,691.083,1303.737Zm-1.393-4.3a.418.418,0,0,1-.4-.31c-.2-.728-.4-1.471-.572-2.208a.429.429,0,0,1,.305-.518.415.415,0,0,1,.5.314c.172.725.362,1.457.563,2.174a.43.43,0,0,1-.284.53A.411.411,0,0,1,689.69,1299.435Zm-1.047-4.4a.419.419,0,0,1-.407-.344c-.146-.748-.277-1.5-.391-2.25a.427.427,0,0,1,.346-.489.417.417,0,0,1,.475.357c.112.734.241,1.478.385,2.214a.429.429,0,0,1-.326.5A.412.412,0,0,1,688.643,1295.031Zm-.682-4.479a.42.42,0,0,1-.413-.381c-.081-.741-.148-1.507-.2-2.276a.416.416,0,1,1,.829-.058c.051.757.117,1.511.2,2.24a.425.425,0,0,1-.367.473A.381.381,0,0,1,687.961,1290.552Zm-.3-4.523a.421.421,0,0,1-.415-.416c-.016-.577-.024-1.164-.024-1.745q0-.269,0-.538a.433.433,0,0,1,.419-.425.423.423,0,0,1,.413.432q0,.266,0,.531c0,.572.008,1.151.024,1.72a.423.423,0,0,1-.4.44Zm.037-4.535h-.019a.424.424,0,0,1-.4-.447c.033-.755.078-1.521.136-2.279a.416.416,0,1,1,.829.067c-.057.747-.1,1.5-.134,2.25A.421.421,0,0,1,687.694,1281.493Zm.344-4.522a.342.342,0,0,1-.047,0,.424.424,0,0,1-.367-.473c.081-.747.176-1.509.281-2.264a.419.419,0,0,1,.471-.363.427.427,0,0,1,.352.485c-.1.746-.2,1.5-.278,2.237A.42.42,0,0,1,688.038,1276.971Zm.63-4.49a.415.415,0,0,1-.073-.007.427.427,0,0,1-.337-.5c.128-.745.269-1.5.421-2.241a.418.418,0,0,1,.492-.33.428.428,0,0,1,.322.507c-.149.733-.289,1.478-.416,2.214A.419.419,0,0,1,688.669,1272.481Zm.9-4.436a.409.409,0,0,1-.1-.012.429.429,0,0,1-.306-.517c.174-.739.361-1.481.556-2.207a.414.414,0,0,1,.512-.3.429.429,0,0,1,.29.526c-.193.717-.377,1.45-.549,2.18A.419.419,0,0,1,689.572,1268.045Zm1.172-4.368a.412.412,0,0,1-.123-.02.431.431,0,0,1-.274-.536c.218-.723.451-1.452.692-2.167a.414.414,0,0,1,.529-.264.431.431,0,0,1,.257.545c-.238.707-.468,1.427-.683,2.141A.418.418,0,0,1,690.744,1263.677Zm1.444-4.285a.412.412,0,0,1-.149-.028.432.432,0,0,1-.239-.553c.267-.715.547-1.427.831-2.117a.412.412,0,0,1,.545-.227.433.433,0,0,1,.22.561c-.281.681-.557,1.384-.82,2.09A.417.417,0,0,1,692.188,1259.392Zm1.721-4.177a.406.406,0,0,1-.175-.04.433.433,0,0,1-.2-.569c.313-.689.64-1.381.975-2.054a.411.411,0,0,1,.56-.186.434.434,0,0,1,.181.576c-.33.663-.653,1.345-.961,2.025A.416.416,0,0,1,693.91,1255.215Zm36.606-2.186a7.358,7.358,0,0,1-1.193-.1.427.427,0,0,1-.345-.49.418.418,0,0,1,.476-.355,6.712,6.712,0,0,0,2.07.011.417.417,0,0,1,.471.362.426.426,0,0,1-.352.484A7.624,7.624,0,0,1,730.516,1253.029Zm3.179-.7a.417.417,0,0,1-.383-.26.434.434,0,0,1,.219-.562,9.955,9.955,0,0,0,1.84-1.066.409.409,0,0,1,.579.1.436.436,0,0,1-.1.6,10.812,10.812,0,0,1-1.993,1.154A.4.4,0,0,1,733.695,1252.331Zm-6.4-.082a.4.4,0,0,1-.183-.044,9.287,9.287,0,0,1-1.917-1.308.437.437,0,0,1-.048-.6.408.408,0,0,1,.586-.049,8.451,8.451,0,0,0,1.745,1.191.434.434,0,0,1,.19.573A.416.416,0,0,1,727.3,1252.249Zm-31.379-1.075a.4.4,0,0,1-.2-.055.434.434,0,0,1-.159-.583c.362-.665.74-1.329,1.124-1.973a.409.409,0,0,1,.572-.141.435.435,0,0,1,.137.589c-.378.635-.751,1.289-1.107,1.944A.413.413,0,0,1,695.919,1251.174Zm41.371-1.42a.409.409,0,0,1-.293-.124.437.437,0,0,1,0-.605,14.413,14.413,0,0,0,1.384-1.677.408.408,0,0,1,.581-.094.436.436,0,0,1,.091.6,15.172,15.172,0,0,1-1.466,1.777A.409.409,0,0,1,737.289,1249.755Zm-13.351-.383a.411.411,0,0,1-.324-.159c-.266-.338-.528-.7-.779-1.085-.176-.268-.348-.544-.511-.822a.436.436,0,0,1,.141-.588.41.41,0,0,1,.571.145c.156.266.32.53.488.785.238.361.486.707.737,1.027a.436.436,0,0,1-.062.6A.405.405,0,0,1,723.938,1249.372Zm-25.712-2.066a.4.4,0,0,1-.232-.073.436.436,0,0,1-.113-.594c.417-.638.847-1.268,1.281-1.872a.408.408,0,0,1,.582-.09.437.437,0,0,1,.088.6c-.426.594-.849,1.213-1.259,1.841A.411.411,0,0,1,698.226,1247.305Zm41.634-1.212a.4.4,0,0,1-.181-.042.434.434,0,0,1-.193-.572,10.436,10.436,0,0,0,.712-2.045.416.416,0,0,1,.5-.315.429.429,0,0,1,.306.517,11.339,11.339,0,0,1-.772,2.216A.415.415,0,0,1,739.86,1246.094Zm-18.206-.586a.415.415,0,0,1-.379-.251,21.324,21.324,0,0,1-.817-2.156.431.431,0,0,1,.266-.54.413.413,0,0,1,.525.274,20.281,20.281,0,0,0,.784,2.067.434.434,0,0,1-.206.567A.406.406,0,0,1,721.654,1245.507Zm-20.809-1.854a.407.407,0,0,1-.261-.1.436.436,0,0,1-.061-.6c.468-.595.953-1.182,1.442-1.745a.408.408,0,0,1,.587-.034.437.437,0,0,1,.033.6c-.48.553-.956,1.129-1.416,1.713A.409.409,0,0,1,700.845,1243.653Zm40.042-1.934h-.009a.423.423,0,0,1-.407-.436c0-.067,0-.135,0-.2a9.9,9.9,0,0,0-.193-1.957.428.428,0,0,1,.323-.506.417.417,0,0,1,.491.333,10.813,10.813,0,0,1,.211,2.13c0,.073,0,.146,0,.219A.422.422,0,0,1,740.887,1241.719Zm-20.608-.512a.419.419,0,0,1-.406-.339,22.569,22.569,0,0,1-.35-2.284.426.426,0,0,1,.371-.47.419.419,0,0,1,.457.381,21.669,21.669,0,0,0,.336,2.195.428.428,0,0,1-.32.507A.392.392,0,0,1,720.28,1241.207Zm-16.5-.937a.407.407,0,0,1-.292-.124.436.436,0,0,1,0-.6c.524-.546,1.064-1.079,1.607-1.587a.408.408,0,0,1,.587.029.437.437,0,0,1-.028.6c-.531.5-1.061,1.021-1.575,1.555A.409.409,0,0,1,703.784,1240.27ZM740,1237.317a.415.415,0,0,1-.377-.247c-.127-.279-.268-.554-.421-.82a11.537,11.537,0,0,0-.676-1.039.436.436,0,0,1,.083-.6.408.408,0,0,1,.582.086,12.517,12.517,0,0,1,.726,1.116c.167.289.322.59.46.895a.434.434,0,0,1-.2.569A.407.407,0,0,1,740,1237.317Zm-32.951-.1a.409.409,0,0,1-.323-.158.437.437,0,0,1,.06-.6c.559-.467,1.134-.921,1.708-1.349l.058-.043a.408.408,0,0,1,.581.094.436.436,0,0,1-.091.6l-.061.046c-.561.418-1.124.862-1.67,1.319A.409.409,0,0,1,707.046,1237.22Zm12.778-.516h0a.422.422,0,0,1-.416-.428c0-.763.04-1.54.117-2.307a.42.42,0,0,1,.456-.381.425.425,0,0,1,.371.469c-.074.739-.112,1.486-.112,2.22A.422.422,0,0,1,719.824,1236.7Zm-9.2-2.132a.413.413,0,0,1-.352-.2.435.435,0,0,1,.13-.59c.631-.41,1.278-.8,1.922-1.163a.41.41,0,0,1,.564.171.435.435,0,0,1-.166.581c-.629.353-1.26.734-1.876,1.135A.4.4,0,0,1,710.62,1234.573Zm26.759-.869a.406.406,0,0,1-.282-.114,12.645,12.645,0,0,0-1.684-1.342.436.436,0,0,1-.123-.592.409.409,0,0,1,.576-.126,13.471,13.471,0,0,1,1.8,1.431.437.437,0,0,1,.024.6A.41.41,0,0,1,737.379,1233.7Zm-22.892-1.3a.416.416,0,0,1-.378-.249.434.434,0,0,1,.2-.568c.679-.323,1.372-.623,2.058-.89a.412.412,0,0,1,.536.248.432.432,0,0,1-.241.552c-.668.261-1.342.552-2,.867A.4.4,0,0,1,714.487,1232.405Zm5.787-.2a.419.419,0,0,1-.408-.514c.086-.433.185-.869.3-1.3-.481.119-.962.252-1.44.4a.415.415,0,0,1-.517-.288.43.43,0,0,1,.28-.532c.642-.2,1.292-.371,1.937-.519a.414.414,0,0,1,.516-.276.43.43,0,0,1,.276.534c-.212.715-.392,1.441-.534,2.157A.419.419,0,0,1,720.274,1232.2Zm13.431-.965a.4.4,0,0,1-.171-.038,15.57,15.57,0,0,0-2.012-.765.43.43,0,0,1-.281-.532.414.414,0,0,1,.517-.289,16.423,16.423,0,0,1,2.118.806.433.433,0,0,1,.208.566A.415.415,0,0,1,733.705,1231.236Zm-4.209-1.294a.426.426,0,0,1-.07-.006,19.575,19.575,0,0,0-2.144-.249.423.423,0,0,1-.39-.453.418.418,0,0,1,.44-.4,20.337,20.337,0,0,1,2.233.26.427.427,0,0,1,.341.493A.42.42,0,0,1,729.5,1229.942Zm-6.587-.088a.42.42,0,0,1-.412-.373.426.426,0,0,1,.359-.479c.748-.1,1.5-.164,2.232-.193a.428.428,0,0,1,.032.855c-.709.028-1.434.091-2.158.187A.441.441,0,0,1,722.909,1229.854Zm-1.353-1.985a.41.41,0,0,1-.157-.031.433.433,0,0,1-.228-.558c.277-.7.59-1.406.93-2.094a.411.411,0,0,1,.559-.188.434.434,0,0,1,.182.575c-.329.668-.632,1.35-.9,2.029A.415.415,0,0,1,721.556,1227.869Zm1.988-4.041a.4.4,0,0,1-.216-.062.435.435,0,0,1-.139-.588c.38-.641.794-1.286,1.229-1.917a.408.408,0,0,1,.58-.1.436.436,0,0,1,.1.6c-.425.615-.827,1.243-1.2,1.867A.413.413,0,0,1,723.544,1223.827Zm2.561-3.681a.408.408,0,0,1-.27-.1.437.437,0,0,1-.045-.6,21.322,21.322,0,0,1,1.547-1.67.408.408,0,0,1,.588.018.437.437,0,0,1-.018.605,20.382,20.382,0,0,0-1.485,1.6A.413.413,0,0,1,726.105,1220.146Zm3.2-3.1a.411.411,0,0,1-.333-.17.437.437,0,0,1,.082-.6,20.973,20.973,0,0,1,1.864-1.285.409.409,0,0,1,.57.148.435.435,0,0,1-.145.587,20.046,20.046,0,0,0-1.79,1.235A.407.407,0,0,1,729.3,1217.051Zm3.771-2.322a.415.415,0,0,1-.376-.246.433.433,0,0,1,.2-.57c.654-.318,1.328-.61,2.06-.894a.413.413,0,0,1,.536.25.432.432,0,0,1-.242.552c-.711.276-1.365.559-2,.867A.4.4,0,0,1,733.075,1214.729Zm4.113-1.613a.417.417,0,0,1-.4-.3.431.431,0,0,1,.274-.536c.634-.2,1.311-.4,2.131-.634a.415.415,0,0,1,.511.3.43.43,0,0,1-.292.526c-.811.227-1.479.426-2.1.625A.4.4,0,0,1,737.188,1213.116Zm4.248-1.212a.418.418,0,0,1-.4-.319.429.429,0,0,1,.3-.523c.681-.186,1.409-.387,2.113-.6a.415.415,0,0,1,.516.29.43.43,0,0,1-.281.531c-.714.217-1.449.419-2.136.607A.4.4,0,0,1,741.436,1211.9Zm4.216-1.315a.416.416,0,0,1-.389-.277.431.431,0,0,1,.242-.551,15.616,15.616,0,0,0,1.956-.9.41.41,0,0,1,.564.173.434.434,0,0,1-.168.58,16.324,16.324,0,0,1-2.058.953A.4.4,0,0,1,745.652,1210.589Zm3.826-2.191a.41.41,0,0,1-.318-.152.436.436,0,0,1,.048-.6,8.352,8.352,0,0,0,1.412-1.58.408.408,0,0,1,.58-.1.436.436,0,0,1,.1.6,9.32,9.32,0,0,1-1.552,1.738A.408.408,0,0,1,749.478,1208.4Zm2.523-3.642a.4.4,0,0,1-.158-.033.432.432,0,0,1-.226-.559c.264-.66.52-1.346.782-2.1a.412.412,0,0,1,.532-.259.431.431,0,0,1,.251.547c-.266.765-.526,1.463-.8,2.136A.417.417,0,0,1,752,1204.757Zm1.5-4.265a.414.414,0,0,1-.127-.021.431.431,0,0,1-.268-.539c.224-.717.44-1.437.653-2.158a.414.414,0,0,1,.519-.285.431.431,0,0,1,.277.534c-.214.726-.431,1.45-.658,2.172A.417.417,0,0,1,753.5,1200.491Zm1.293-4.336a.408.408,0,0,1-.121-.018.431.431,0,0,1-.277-.534c.214-.726.43-1.45.655-2.172a.413.413,0,0,1,.523-.277.431.431,0,0,1,.269.538c-.224.717-.439,1.438-.651,2.16A.418.418,0,0,1,754.79,1196.155Zm1.355-4.315a.41.41,0,0,1-.139-.025.431.431,0,0,1-.253-.547c.264-.766.523-1.465.79-2.137a.412.412,0,0,1,.543-.234.433.433,0,0,1,.227.558c-.262.659-.516,1.346-.776,2.1A.417.417,0,0,1,756.144,1191.841Zm1.676-4.188a.411.411,0,0,1-.181-.043.434.434,0,0,1-.193-.572c.332-.706.683-1.389,1.046-2.031a.409.409,0,0,1,.568-.156.435.435,0,0,1,.151.585c-.351.624-.693,1.288-1.016,1.974A.415.415,0,0,1,757.82,1187.652Zm2.214-3.914a.407.407,0,0,1-.238-.077.436.436,0,0,1-.1-.6c.429-.631.889-1.245,1.366-1.826a.408.408,0,0,1,.586-.05.437.437,0,0,1,.049.6c-.461.561-.905,1.154-1.32,1.764A.411.411,0,0,1,760.035,1183.739Zm2.841-3.455a.407.407,0,0,1-.3-.128.437.437,0,0,1,.005-.605c.392-.4.805-.787,1.228-1.161q.217-.192.437-.379a.408.408,0,0,1,.586.058.436.436,0,0,1-.057.6q-.214.182-.424.368c-.409.361-.809.739-1.188,1.122A.409.409,0,0,1,762.876,1180.284Zm3.391-2.891a.412.412,0,0,1-.34-.182.436.436,0,0,1,.1-.6c.612-.443,1.244-.863,1.879-1.248a.409.409,0,0,1,.569.151.435.435,0,0,1-.147.586c-.616.374-1.229.781-1.823,1.211A.406.406,0,0,1,766.267,1177.393Zm3.793-2.3a.414.414,0,0,1-.375-.243.434.434,0,0,1,.194-.571c.676-.334,1.369-.639,2.059-.906a.412.412,0,0,1,.536.25.432.432,0,0,1-.243.552c-.667.258-1.337.553-1.991.877A.4.4,0,0,1,770.06,1175.1Zm4.12-1.592a.417.417,0,0,1-.4-.315.43.43,0,0,1,.291-.526c.724-.2,1.461-.373,2.189-.5a.417.417,0,0,1,.48.349.427.427,0,0,1-.34.494c-.7.124-1.412.287-2.111.484A.409.409,0,0,1,774.18,1173.5Zm4.336-.764a.429.429,0,0,1-.028-.855,21.145,21.145,0,0,1,2.245-.041.423.423,0,0,1,.4.442.417.417,0,0,1-.43.413,20.31,20.31,0,0,0-2.159.039Z" transform="translate(-687.217 -1171.831)" fill="#e2ebd6"/>
      <path id="Path_963" data-name="Path 963" d="M1838.766,1175.476a.4.4,0,0,1-.083-.008c-.354-.073-.715-.138-1.069-.191a.427.427,0,0,1-.352-.485.419.419,0,0,1,.471-.362c.37.056.744.122,1.114.2a.428.428,0,0,1,.326.5A.42.42,0,0,1,1838.766,1175.476Z" transform="translate(-1741.911 -1174.204)" fill="#e2ebd6"/>
    </g>
    <g id="rocket" transform="translate(1125.668 954.215)">
      <g id="Group_1233" data-name="Group 1233" transform="translate(1.154 0)">
        <g id="Group_1232" data-name="Group 1232">
          <path id="Path_1045" data-name="Path 1045" d="M47.042,29.394h-14.3L25.59,42.265,24.16,43.7a6.068,6.068,0,1,0,8.581,8.581l1.43-1.43L47.042,43.7ZM23.108,38.532a2.021,2.021,0,0,0,1.478-1.184c1.5-3.458,4.825-8.557,8.9-13.639a2.021,2.021,0,0,0,.36-1.838,2.434,2.434,0,0,0-1.9-1.546c-.4-.133-9.874-3.148-19.231,6.209C5.649,33.6,9.684,37.8,9.858,37.975a2.021,2.021,0,0,0,2.86,0,6.074,6.074,0,0,1,8.581,0A2.026,2.026,0,0,0,23.108,38.532Zm31.457,4.053a2.021,2.021,0,0,0-1.838.36c-5.26,4.221-10.223,7.463-13.622,8.9a2.022,2.022,0,0,0-.644,3.295,6.074,6.074,0,0,1,0,8.581,2.021,2.021,0,0,0,0,2.86c.175.174,4.371,4.209,11.441-2.86,9.357-9.357,6.342-18.833,6.209-19.228A2.443,2.443,0,0,0,54.565,42.585ZM76.216,1.936A2.064,2.064,0,0,0,74.5.219,46.094,46.094,0,0,0,56.8,1.964L62.709,13.6,74.472,19.64A46.1,46.1,0,0,0,76.216,1.936ZM49.9,15.093a8.09,8.09,0,1,0,11.441,0A8.114,8.114,0,0,0,49.9,15.093Z" transform="translate(-8.555 0)" fill="#1f336f"/>
        </g>
      </g>
      <path id="Path_1046" data-name="Path 1046" d="M49.394,14.571a45.524,45.524,0,0,0-19.764,11.7c-2.117,2.117-4.434,4.719-6.693,7.494C18.646,39.14,15.1,44.575,13.5,48.351a1.973,1.973,0,0,0,.4,2.231l4.29,4.29L28.2,44.861a6.068,6.068,0,0,1,8.581,8.581L26.769,63.453l4.29,4.29a1.977,1.977,0,0,0,2.2.429c3.747-1.573,9.067-5.006,14.616-9.467,2.774-2.26,5.377-4.576,7.494-6.693a45.52,45.52,0,0,0,11.7-19.764Zm4.548,24.57a8.09,8.09,0,1,1,0-11.441A8.088,8.088,0,0,1,53.941,39.141Zm-40.017,28.6a2.021,2.021,0,0,0-2.86,0L.593,78.188a2.022,2.022,0,0,0,2.86,2.86L13.924,70.6A2.021,2.021,0,0,0,13.924,67.745Zm2.86,5.72-2.86,2.86a2.022,2.022,0,1,0,2.86,2.86l2.86-2.86a2.022,2.022,0,0,0-2.86-2.86ZM5.344,67.745l2.86-2.86a2.022,2.022,0,1,0-2.86-2.86l-2.86,2.86a2.022,2.022,0,0,0,2.86,2.86Z" transform="translate(0 -12.606)" stroke="rgba(0,0,0,0)" stroke-width="1" fill="url(#linear-gradient-7)"/>
      <path id="Path_1047" data-name="Path 1047" d="M13.924,53.5a2.021,2.021,0,0,0-2.86,0L.593,63.944a2.022,2.022,0,1,0,2.86,2.86L13.924,56.361A2.021,2.021,0,0,0,13.924,53.5Zm2.86,5.72-2.86,2.86a2.022,2.022,0,0,0,2.86,2.86l2.86-2.86a2.022,2.022,0,1,0-2.86-2.86ZM5.344,53.5l2.86-2.86a2.022,2.022,0,0,0-2.86-2.86l-2.86,2.86a2.022,2.022,0,0,0,2.86,2.86Z" transform="translate(0 1.638)" fill="#97d5cd"/>
      <circle id="Ellipse_100" data-name="Ellipse 100" cx="8.119" cy="8.119" r="8.119" transform="translate(40.041 12.627)" fill="#1f336f" stroke="#83bbca" stroke-width="3"/>
    </g>
    <path id="cloud" d="M0,32.48c1.6-5.2,7.027-9.025,13.488-9.025.447,0,.891.018,1.328.057,2.777-5.844,9.619-9.979,17.631-9.979a22.385,22.385,0,0,1,6.32.9C40.543,6.223,49.1,0,59.383,0c8.6,0,15.994,4.357,19.215,10.59a24.812,24.812,0,0,1,5.721-.666c11.568,0,20.951,7.877,20.951,17.594a14.974,14.974,0,0,1-.846,4.963Z" transform="translate(1011.74 932.04)" opacity="0.9" fill="url(#linear-gradient-8)"/>
    <path id="cloud-2" data-name="cloud" d="M0,17a7.216,7.216,0,0,1,7.063-4.725c.234,0,.467.01.7.029,1.455-3.061,5.037-5.225,9.23-5.225a11.7,11.7,0,0,1,3.307.471C21.227,3.258,25.7,0,31.09,0c4.5,0,8.373,2.281,10.059,5.545a12.943,12.943,0,0,1,2.994-.35c6.059,0,10.969,4.123,10.969,9.213A7.817,7.817,0,0,1,54.67,17Z" transform="translate(1215.632 931.277)" opacity="0.7" fill="url(#linear-gradient-8)"/>
    <path id="cloud-3" data-name="cloud" d="M19.427,5.779a10.923,10.923,0,0,0-4.262-.848c-3.974,0-7.372,2.052-8.751,4.953-.216-.018-.436-.027-.658-.027A7.245,7.245,0,0,0,0,12.532H40.726a10.274,10.274,0,0,0,.153-1.768C40.879,4.819,35.788,0,29.508,0A11.463,11.463,0,0,0,19.427,5.779Z" transform="translate(1027.161 1015.205)" opacity="0.5" fill="url(#linear-gradient-10)"/>
    <path id="Path_1088" data-name="Path 1088" d="M0,36.074s25.371-.532,71.376,8.382S161.487,76.6,161.487,76.6H9.022c-.135,0-.268,0-.684-.026a8.957,8.957,0,0,1-8.337-9Z" transform="translate(971 1123.896)" fill="#294290" opacity="0.3"/>
    <g id="coin" transform="translate(1170.717 1049.456)">
      <path id="Path_1262" data-name="Path 1262" d="M19.4,1.359A18.076,18.076,0,1,1,1.359,19.4,18.152,18.152,0,0,1,19.4,1.359Z" transform="translate(-0.001 23.988) rotate(-45)" fill="#97d5cd"/>
      <path id="Path_957" data-name="Path 957" d="M2680.291,1924.252a.415.415,0,0,1-.371-.6,17.065,17.065,0,0,1,15.3-9.389,17.345,17.345,0,0,1,3.09.277.414.414,0,1,1-.149.815,16.47,16.47,0,0,0-2.941-.264,16.237,16.237,0,0,0-14.56,8.934A.415.415,0,0,1,2680.291,1924.252Z" transform="translate(-2667.738 -1907.345)" fill="#fff" opacity="0.312"/>
      <path id="Path_1263" data-name="Path 1263" d="M16.423,1.15A15.3,15.3,0,1,1,1.15,16.423,15.363,15.363,0,0,1,16.423,1.15Z" transform="translate(4.616 24.382) rotate(-45)" fill="url(#radial-gradient)"/>
      <g id="Group_993" data-name="Group 993" transform="translate(23.139 15.968)">
        <path id="Path_958" data-name="Path 958" d="M2830.709,2039.023v-1.156a9.431,9.431,0,0,1-3.244-.7.669.669,0,0,1-.37-.79l.294-1.077a.674.674,0,0,1,.915-.441,7.827,7.827,0,0,0,3,.631c1.161,0,2.026-.394,2.026-1.2,0-.728-.669-1.161-2.283-1.593-2.3-.63-3.955-1.633-3.955-3.66,0-1.83,1.339-3.227,3.66-3.6v-1.156a.674.674,0,0,1,.673-.674h.68a.674.674,0,0,1,.674.674v1.038a8.6,8.6,0,0,1,2.571.462.67.67,0,0,1,.419.809l-.27,1a.672.672,0,0,1-.887.454,7.017,7.017,0,0,0-2.522-.458c-1.377,0-1.771.57-1.771,1.082,0,.63.826,1.062,2.616,1.614,2.558.767,3.62,1.829,3.62,3.738,0,1.751-1.3,3.325-3.816,3.719v1.294a.674.674,0,0,1-.674.673h-.679A.674.674,0,0,1,2830.709,2039.023Z" transform="translate(-2827.071 -2023.602)" fill="#e2e9ff" stroke="rgba(0,0,0,0)" stroke-width="1"/>
      </g>
    </g>
    <g id="coin-2" data-name="coin" transform="translate(1113.269 1076.184)">
      <path id="Path_1264" data-name="Path 1264" d="M19.4,1.359A18.076,18.076,0,1,1,1.359,19.4,18.152,18.152,0,0,1,19.4,1.359Z" transform="translate(-0.001 23.988) rotate(-45)" fill="#97d5cd"/>
      <path id="Path_957-2" data-name="Path 957" d="M2680.291,1924.252a.415.415,0,0,1-.371-.6,17.065,17.065,0,0,1,15.3-9.389,17.345,17.345,0,0,1,3.09.277.414.414,0,1,1-.149.815,16.47,16.47,0,0,0-2.941-.264,16.237,16.237,0,0,0-14.56,8.934A.415.415,0,0,1,2680.291,1924.252Z" transform="translate(-2667.738 -1907.345)" fill="#fff" opacity="0.312"/>
      <path id="Path_1265" data-name="Path 1265" d="M16.423,1.15A15.3,15.3,0,1,1,1.15,16.423,15.363,15.363,0,0,1,16.423,1.15Z" transform="translate(4.616 24.382) rotate(-45)" fill="url(#radial-gradient)"/>
      <g id="Group_993-2" data-name="Group 993" transform="translate(23.138 15.968)">
        <path id="Path_958-2" data-name="Path 958" d="M2830.709,2039.023v-1.156a9.431,9.431,0,0,1-3.244-.7.669.669,0,0,1-.37-.79l.294-1.077a.674.674,0,0,1,.915-.441,7.827,7.827,0,0,0,3,.631c1.161,0,2.026-.394,2.026-1.2,0-.728-.669-1.161-2.283-1.593-2.3-.63-3.955-1.633-3.955-3.66,0-1.83,1.339-3.227,3.66-3.6v-1.156a.674.674,0,0,1,.673-.674h.68a.674.674,0,0,1,.674.674v1.038a8.6,8.6,0,0,1,2.571.462.67.67,0,0,1,.419.809l-.27,1a.672.672,0,0,1-.887.454,7.017,7.017,0,0,0-2.522-.458c-1.377,0-1.771.57-1.771,1.082,0,.63.826,1.062,2.616,1.614,2.558.767,3.62,1.829,3.62,3.738,0,1.751-1.3,3.325-3.816,3.719v1.294a.674.674,0,0,1-.674.673h-.679A.674.674,0,0,1,2830.709,2039.023Z" transform="translate(-2827.071 -2023.602)" fill="#e2e9ff" stroke="rgba(0,0,0,0)" stroke-width="1"/>
      </g>
    </g>
    <g id="coin-3" data-name="coin" transform="translate(1053.697 1100.497)">
      <path id="Path_1266" data-name="Path 1266" d="M19.4,1.359A18.076,18.076,0,1,1,1.359,19.4,18.152,18.152,0,0,1,19.4,1.359Z" transform="translate(0 23.989) rotate(-45)" fill="#97d5cd"/>
      <path id="Path_957-3" data-name="Path 957" d="M2680.291,1924.252a.415.415,0,0,1-.371-.6,17.065,17.065,0,0,1,15.3-9.389,17.345,17.345,0,0,1,3.09.277.414.414,0,1,1-.149.815,16.47,16.47,0,0,0-2.941-.264,16.237,16.237,0,0,0-14.56,8.934A.415.415,0,0,1,2680.291,1924.252Z" transform="translate(-2667.737 -1907.345)" fill="#fff" opacity="0.312"/>
      <path id="Path_1267" data-name="Path 1267" d="M16.423,1.15A15.3,15.3,0,1,1,1.15,16.423,15.363,15.363,0,0,1,16.423,1.15Z" transform="translate(4.617 24.382) rotate(-45)" fill="url(#radial-gradient)"/>
      <g id="Group_993-3" data-name="Group 993" transform="translate(23.14 15.969)">
        <path id="Path_958-3" data-name="Path 958" d="M2830.708,2039.023v-1.156a9.435,9.435,0,0,1-3.244-.7.668.668,0,0,1-.369-.79l.294-1.077a.674.674,0,0,1,.915-.441,7.827,7.827,0,0,0,3,.631c1.161,0,2.026-.394,2.026-1.2,0-.728-.669-1.161-2.282-1.594-2.3-.63-3.955-1.633-3.955-3.66,0-1.83,1.338-3.227,3.659-3.6v-1.156a.674.674,0,0,1,.674-.674h.679a.674.674,0,0,1,.674.674v1.038a8.591,8.591,0,0,1,2.571.462.67.67,0,0,1,.419.809l-.27,1a.672.672,0,0,1-.887.454,7.014,7.014,0,0,0-2.522-.458c-1.377,0-1.77.57-1.77,1.082,0,.63.826,1.062,2.616,1.614,2.558.767,3.62,1.829,3.62,3.738,0,1.751-1.3,3.325-3.817,3.719v1.294a.674.674,0,0,1-.674.673h-.679A.674.674,0,0,1,2830.708,2039.023Z" transform="translate(-2827.071 -2023.602)" fill="#e2e9ff" stroke="rgba(0,0,0,0)" stroke-width="1"/>
      </g>
    </g>
    <g id="plant" transform="translate(1010.001 1049.455)">
      <path id="Path_1089" data-name="Path 1089" d="M11.824,2c.54.035,1.086,1.523,1.086,1.523S23.126,30.228,23.126,45.585c0,18.983-5.434,23.95-11.633,23.95S.678,64.568.678,45.585c0-15.87,7.294-35.654,9.839-42.165C10.937,2.344,11.284,1.961,11.824,2Z" transform="translate(-0.678 -1.994)" fill="#294290" opacity="0.999"/>
      <g id="Group_1354" data-name="Group 1354" transform="translate(0.687 0.305)">
        <line id="Line_122" data-name="Line 122" x2="0.107" y2="88.04" transform="translate(10.43)" fill="none" stroke="#5f82eb" stroke-width="1"/>
        <path id="Path_1090" data-name="Path 1090" d="M-23062.129-22016.43l-7.449,9.543-7.652-7.43" transform="translate(23079.984 22038.783)" fill="none" stroke="#5f82eb" stroke-width="1"/>
        <path id="Path_1091" data-name="Path 1091" d="M-23081.8-21993.59l10.572,10.1,10.123-11.68" transform="translate(23081.797 22030.344)" fill="none" stroke="#5f82eb" stroke-width="1"/>
        <path id="Path_1092" data-name="Path 1092" d="M-23081.8-21967.111l10.23,8.23,11.23-11.3" transform="translate(23081.797 22018.615)" fill="none" stroke="#5f82eb" stroke-width="1"/>
      </g>
    </g>
    <g id="plant-2" data-name="plant" transform="translate(1243.187 1040.468)">
      <path id="Path_1089-2" data-name="Path 1089" d="M17.354,2c.808.053,1.625,2.278,1.625,2.278S34.262,44.235,34.262,67.21c0,28.4-8.13,35.831-17.4,35.831S.678,95.611.678,67.21C.678,43.468,11.59,13.869,15.4,4.128,16.027,2.517,16.546,1.945,17.354,2Z" transform="translate(-0.678 -1.994)" fill="#294290" opacity="0.999"/>
      <g id="Group_1354-2" data-name="Group 1354" transform="translate(1.027 0.456)">
        <line id="Line_122-2" data-name="Line 122" x2="0.16" y2="131.715" transform="translate(15.605)" fill="none" stroke="#5f82eb" stroke-width="1"/>
        <path id="Path_1090-2" data-name="Path 1090" d="M-23054.639-22016.43l-11.143,14.275-11.449-11.111" transform="translate(23081.35 22049.873)" fill="none" stroke="#5f82eb" stroke-width="1"/>
        <path id="Path_1091-2" data-name="Path 1091" d="M-23081.8-21992.809l15.818,15.109,15.143-17.469" transform="translate(23081.797 22047.795)" fill="none" stroke="#5f82eb" stroke-width="1"/>
        <path id="Path_1092-2" data-name="Path 1092" d="M-23081.8-21965.586l15.3,12.313,16.807-16.91" transform="translate(23081.797 22042.643)" fill="none" stroke="#5f82eb" stroke-width="1"/>
      </g>
    </g>
    <g id="coins" transform="translate(1053.938 1133.994)">
      <path id="Union_12" data-name="Union 12" d="M3.64,38.462a3.524,3.524,0,0,1,0-7.047H33.466a3.524,3.524,0,1,1,0,7.047Zm-.03-7.751a3.524,3.524,0,0,1,0-7.048H33.436a3.524,3.524,0,0,1,0,7.048Zm-.028-7.751a3.524,3.524,0,0,1,0-7.048H33.408a3.524,3.524,0,0,1,0,7.048ZM3.552,15a3.524,3.524,0,1,1,0-7.047H33.377a3.523,3.523,0,1,1,0,7.047ZM3.524,7.048A3.524,3.524,0,0,1,3.524,0H33.35a3.524,3.524,0,0,1,0,7.048Z" transform="translate(136.041)" fill="#83bbc9"/>
      <path id="Union_13" data-name="Union 13" d="M3.67,31.413a3.58,3.58,0,0,1,0-7.16H34.817a3.58,3.58,0,0,1,0,7.16ZM3.64,23.328a3.58,3.58,0,0,1,0-7.16H34.787a3.58,3.58,0,1,1,0,7.16Zm-.03-8.084a3.58,3.58,0,0,1,0-7.16H34.757a3.58,3.58,0,1,1,0,7.16ZM3.58,7.16A3.58,3.58,0,1,1,3.58,0H34.727a3.58,3.58,0,0,1,0,7.16Z" transform="translate(68.004 7.052)" fill="#83bbc9"/>
      <path id="Union_14" data-name="Union 14" d="M3.694,24.2A3.633,3.633,0,0,1,.06,20.569v-.161a3.634,3.634,0,0,1,3.633-3.634H34.73a3.634,3.634,0,0,1,3.634,3.634v.161A3.633,3.633,0,0,1,34.731,24.2Zm-.03-8.387A3.634,3.634,0,0,1,.03,12.182v-.161A3.634,3.634,0,0,1,3.664,8.387H34.7a3.634,3.634,0,0,1,3.634,3.634v.161A3.634,3.634,0,0,1,34.7,15.816ZM3.633,7.429A3.633,3.633,0,0,1,0,3.8V3.633A3.634,3.634,0,0,1,3.633,0H34.671A3.634,3.634,0,0,1,38.3,3.634V3.8a3.633,3.633,0,0,1-3.633,3.633Z" transform="translate(0 14.258)" fill="#83bbc9"/>
    </g>
    <text id="Create_your_own_desi" data-name="Create your own desi" transform="translate(1140.83 902.565)" fill="#fff" font-size="28" font-family="Avenir" font-weight="600"><tspan x="-94" y="0">Your Financials</tspan></text>
    <g id="view-all" transform="translate(1106.019 922.184)">
      <rect id="Rectangle_444" data-name="Rectangle 444" width="73.627" height="24" rx="12" transform="translate(0.119)" fill="#69ccc0"/>
      <g id="Group_1459" data-name="Group 1459" transform="translate(-1047.527 4)">
        <text id="Awesome_designs_are" data-name="Awesome designs are" transform="translate(1099.527 12)" fill="#fff" font-size="11" font-family="Avenir" font-weight="500"><tspan x="-40" y="0">View All</tspan></text>
        <path id="Path_1195" data-name="Path 1195" d="M1222.689,927.2l2.967,2.967-2.967,2.967" transform="translate(-116.502 -922.442)" fill="none" stroke="#fff" stroke-width="1"/>
      </g>
    </g>
  </g>
</svg>
